<svg xmlns="http://www.w3.org/2000/svg" viewBox="0 0 717.91 459.25"><defs><style>.cls-1{fill:#f5f5f5;}.cls-2{fill:#e0bf3c;}.cls-3{fill:#e0e0e0;}.cls-28,.cls-4{fill:#1a3066;}.cls-5{fill:#ccc;}.cls-6{fill:#bcbbb7;}.cls-16,.cls-20,.cls-7{fill:none;}.cls-8{fill:#fff;}.cls-9{fill:#b3ccee;}.cls-10{fill:#263238;}.cls-11{fill:#ffac17;}.cls-12{fill:#455a64;}.cls-13{opacity:0.3;}.cls-14,.cls-21{fill:#ff725e;}.cls-15{fill:#0e2637;}.cls-16{stroke:#4e585d;stroke-width:0.05px;}.cls-16,.cls-28{stroke-miterlimit:10;}.cls-17{fill:#ffe1b0;}.cls-18{fill:#dcf5ff;}.cls-19{fill:#eee;}.cls-20{stroke:#fff;stroke-linecap:round;stroke-linejoin:round;stroke-width:0.75px;}.cls-21{font-size:5.63px;font-family:Montserrat-Bold, Montserrat;font-weight:700;}.cls-22{fill:#ae7461;}.cls-23{fill:#6f4439;}.cls-24{fill:#e0dce2;}.cls-25{fill:#ffbf9d;}.cls-26{fill:#ff9a6c;}.cls-27{opacity:0.6;}.cls-28{stroke:#10246b;}</style></defs><g id="Background_Complete" data-name="Background Complete"><path class="cls-1" d="M160.47,66.63a38.83,38.83,0,1,1-44-32.75A38.78,38.78,0,0,1,160.47,66.63Z" transform="translate(-21.29 -24.85)"/><path class="cls-2" d="M151.33,68A29.59,29.59,0,1,1,117.8,43,29.57,29.57,0,0,1,151.33,68Z" transform="translate(-21.29 -24.85)"/><path class="cls-3" d="M151.19,67c-.18,0-.49-1.23-1.29-3.41a31.22,31.22,0,0,0-4.68-8.48,30.48,30.48,0,0,0-4.65-4.76,29.75,29.75,0,0,0-6.47-4,29.14,29.14,0,0,0-8-2.31,28.13,28.13,0,0,0-4.43-.26,28.93,28.93,0,0,0-9,1.59,27.49,27.49,0,0,0-4.07,1.77A27.1,27.1,0,0,0,105,49.45a29.11,29.11,0,0,0-3.13,2.67,29.54,29.54,0,0,0-4.69,6,30,30,0,0,0-2.73,6.07A31.39,31.39,0,0,0,93,73.74c0,2.32.14,3.62,0,3.65s-.57-1.23-.84-3.6a27.34,27.34,0,0,1,.81-10.07,29.54,29.54,0,0,1,7.48-13.07,28.3,28.3,0,0,1,3.31-2.92,29,29,0,0,1,3.88-2.51,30.19,30.19,0,0,1,4.37-1.94,30.31,30.31,0,0,1,9.68-1.71,31.25,31.25,0,0,1,4.77.31A30.65,30.65,0,0,1,135,44.5,30.13,30.13,0,0,1,141.78,49a29.8,29.8,0,0,1,4.73,5.24,27.41,27.41,0,0,1,4.24,9.17C151.3,65.7,151.32,67,151.19,67Z" transform="translate(-21.29 -24.85)"/><path class="cls-3" d="M127.89,89.2l.82,5.09-4.54.73-.8-5c-4.54.45-9.08-.27-11.89-1.82l1.61-5.94a18.63,18.63,0,0,0,9.33,1.81l-1.22-7.59c-5.24-.42-11.14-1.2-12.18-7.7-.77-4.81,2.07-9.51,9.11-11.48l-.8-5,4.54-.73.79,5a20.71,20.71,0,0,1,9.67,1.29l-1.37,6a19,19,0,0,0-7.34-1.25l1.24,7.73c5.23.37,11,1.17,12.07,7.57C137.69,82.55,134.89,87.19,127.89,89.2Zm-7.75-19.36-1-6.45c-2.32.93-3.06,2.4-2.82,3.9S118,69.53,120.14,69.84Zm9.57,9.7c-.26-1.59-1.72-2.24-3.78-2.61l1,6.27C129.13,82.34,129.94,81,129.71,79.54Z" transform="translate(-21.29 -24.85)"/><path class="cls-1" d="M717.67,143.2A18.27,18.27,0,1,1,697,127.8,18.25,18.25,0,0,1,717.67,143.2Z" transform="translate(-21.29 -24.85)"/><path class="cls-2" d="M713.37,143.83a13.92,13.92,0,1,1-15.77-11.74A13.91,13.91,0,0,1,713.37,143.83Z" transform="translate(-21.29 -24.85)"/><path class="cls-3" d="M713.3,143.4a8.42,8.42,0,0,1-.6-1.61,15,15,0,0,0-2.2-4,15.3,15.3,0,0,0-2.19-2.24,14.47,14.47,0,0,0-3-1.88,13.1,13.1,0,0,0-1.82-.67,13.75,13.75,0,0,0-2-.42,14.26,14.26,0,0,0-2.08-.12,15.66,15.66,0,0,0-2.14.21,14.43,14.43,0,0,0-2.08.54,14.88,14.88,0,0,0-1.91.83,13.34,13.34,0,0,0-1.71,1.07,13.89,13.89,0,0,0-1.47,1.26,14.2,14.2,0,0,0-2.21,2.81,13.94,13.94,0,0,0-1.28,2.86,14.53,14.53,0,0,0-.69,4.5,8.2,8.2,0,0,1,0,1.71,4,4,0,0,1-.4-1.69,13.08,13.08,0,0,1,.38-4.74,14.81,14.81,0,0,1,1.24-3.08,14.48,14.48,0,0,1,2.28-3.06,13.85,13.85,0,0,1,1.56-1.38,14.19,14.19,0,0,1,1.82-1.18,15.88,15.88,0,0,1,2.06-.91,15.17,15.17,0,0,1,2.25-.59,16.41,16.41,0,0,1,2.3-.22,15.1,15.1,0,0,1,2.25.15,13.33,13.33,0,0,1,2.12.48,13.1,13.1,0,0,1,1.93.75,14,14,0,0,1,5.42,4.56,12.91,12.91,0,0,1,2,4.32A3.89,3.89,0,0,1,713.3,143.4Z" transform="translate(-21.29 -24.85)"/><path class="cls-3" d="M702.35,153.82l.38,2.4-2.14.34-.37-2.33a10.28,10.28,0,0,1-5.6-.86l.76-2.8a8.84,8.84,0,0,0,4.39.86l-.57-3.57c-2.47-.2-5.24-.57-5.73-3.62-.37-2.27,1-4.48,4.28-5.4l-.38-2.38,2.14-.34.38,2.33a9.73,9.73,0,0,1,4.54.61l-.64,2.8a9,9,0,0,0-3.45-.59l.58,3.64c2.46.17,5.2.55,5.68,3.56C707,150.69,705.64,152.88,702.35,153.82Zm-3.65-9.11-.49-3c-1.09.44-1.44,1.13-1.33,1.83S697.71,144.57,698.7,144.71Zm4.5,4.57c-.12-.75-.81-1.06-1.78-1.23l.47,2.95C702.93,150.59,703.31,150,703.2,149.28Z" transform="translate(-21.29 -24.85)"/><path class="cls-1" d="M226,39.15a16.74,16.74,0,1,1-19-14.12A16.72,16.72,0,0,1,226,39.15Z" transform="translate(-21.29 -24.85)"/><path class="cls-4" d="M222.08,39.73A12.76,12.76,0,1,1,207.62,29,12.74,12.74,0,0,1,222.08,39.73Z" transform="translate(-21.29 -24.85)"/><path class="cls-3" d="M222,39.33a6.89,6.89,0,0,1-.55-1.47,14,14,0,0,0-2-3.66,13.79,13.79,0,0,0-2-2.05,12.41,12.41,0,0,0-2.79-1.72,12.1,12.1,0,0,0-1.66-.62,12.89,12.89,0,0,0-1.81-.38,12.6,12.6,0,0,0-3.87.08,13.23,13.23,0,0,0-1.9.49,13.93,13.93,0,0,0-1.76.76,12.49,12.49,0,0,0-1.56,1,10.76,10.76,0,0,0-1.35,1.15,12.84,12.84,0,0,0-3.2,5.19,13.75,13.75,0,0,0-.64,4.13,7.42,7.42,0,0,1,0,1.57,3.6,3.6,0,0,1-.37-1.55,11.73,11.73,0,0,1,.36-4.34A12.49,12.49,0,0,1,198,35.08a13.09,13.09,0,0,1,2.09-2.82A12.5,12.5,0,0,1,201.53,31a12.92,12.92,0,0,1,1.67-1.08,12.3,12.3,0,0,1,1.89-.83,14,14,0,0,1,2-.54,13.36,13.36,0,0,1,4.18-.07,12.17,12.17,0,0,1,1.94.44,13.84,13.84,0,0,1,1.77.69A13.33,13.33,0,0,1,218,31.53a13.07,13.07,0,0,1,2,2.26,11.89,11.89,0,0,1,1.83,4A3.67,3.67,0,0,1,222,39.33Z" transform="translate(-21.29 -24.85)"/><path class="cls-3" d="M212,48.89l.35,2.19-2,.32L210,49.26a9.48,9.48,0,0,1-5.14-.79l.7-2.56a8,8,0,0,0,4,.78l-.52-3.27c-2.26-.18-4.81-.52-5.25-3.32-.34-2.08.89-4.1,3.93-5L207.42,33l2-.31.34,2.14a8.87,8.87,0,0,1,4.17.56l-.59,2.56a8.14,8.14,0,0,0-3.17-.54l.54,3.34c2.25.16,4.76.5,5.2,3.26C216.2,46,215,48,212,48.89Zm-3.35-8.35-.45-2.78c-1,.4-1.32,1-1.21,1.68S207.72,40.4,208.63,40.54Zm4.13,4.18c-.11-.68-.74-1-1.63-1.12l.43,2.7C212.51,45.93,212.86,45.35,212.76,44.72Z" transform="translate(-21.29 -24.85)"/><path class="cls-5" d="M72,236.69a23.84,23.84,0,1,1-3.36-33.5A23.81,23.81,0,0,1,72,236.69Z" transform="translate(-21.29 -24.85)"/><path class="cls-5" d="M67.6,233.1A18.17,18.17,0,1,1,65,207.56,18.15,18.15,0,0,1,67.6,233.1Z" transform="translate(-21.29 -24.85)"/><path class="cls-5" d="M68,232.65a11.08,11.08,0,0,1,1-2A19.16,19.16,0,0,0,70.88,225a18.34,18.34,0,0,0,.23-4.07,18,18,0,0,0-.86-4.59,17.14,17.14,0,0,0-1-2.34A18.14,18.14,0,0,0,68,211.75a17.84,17.84,0,0,0-1.72-2.11,17.79,17.79,0,0,0-4.43-3.41,18.82,18.82,0,0,0-2.48-1.11,16.84,16.84,0,0,0-2.54-.7,18.2,18.2,0,0,0-2.5-.32,18,18,0,0,0-8.53,1.63,19.28,19.28,0,0,0-5,3.29c-1,1-1.57,1.56-1.66,1.5s.32-.77,1.28-1.88a16.77,16.77,0,0,1,4.9-3.8,18.75,18.75,0,0,1,4.06-1.51,18.4,18.4,0,0,1,5-.5,16.75,16.75,0,0,1,2.7.29,16.3,16.3,0,0,1,2.74.72A18.17,18.17,0,0,1,62.48,205,19.25,19.25,0,0,1,65,206.66a20.71,20.71,0,0,1,2.24,2,17.92,17.92,0,0,1,1.83,2.3,17.32,17.32,0,0,1,1.41,2.46,17.06,17.06,0,0,1,1,2.53,18.12,18.12,0,0,1,.38,9.24,16.9,16.9,0,0,1-2.41,5.71C68.62,232.15,68,232.7,68,232.65Z" transform="translate(-21.29 -24.85)"/><path class="cls-3" d="M48.27,231.26l-2,2.48L44.09,232,46,229.57a13.4,13.4,0,0,1-4.1-6.15l3.36-1.73a11.52,11.52,0,0,0,3,5l2.94-3.7c-2-2.55-4.07-5.55-1.55-8.71,1.86-2.34,5.16-3,9-.62l2-2.45L62.84,213l-1.92,2.41a12.93,12.93,0,0,1,3.42,4.92l-3.27,1.84a11.56,11.56,0,0,0-2.47-3.84l-3,3.76c2,2.52,4,5.49,1.56,8.6C55.34,233,52.08,233.61,48.27,231.26Zm5.57-11.53,2.49-3.14c-1.38-.66-2.35-.39-2.93.34S53.11,218.65,53.84,219.73Zm-.44,8.36c.62-.78.31-1.71-.38-2.8l-2.43,3.06C51.89,229,52.84,228.79,53.4,228.09Z" transform="translate(-21.29 -24.85)"/><path class="cls-1" d="M606.34,336.53A23.84,23.84,0,1,1,603,303,23.82,23.82,0,0,1,606.34,336.53Z" transform="translate(-21.29 -24.85)"/><path class="cls-2" d="M602,332.93a18.17,18.17,0,1,1-2.57-25.53A18.15,18.15,0,0,1,602,332.93Z" transform="translate(-21.29 -24.85)"/><path class="cls-3" d="M602.31,332.49a11.12,11.12,0,0,1,1-2,19.38,19.38,0,0,0,1.91-5.63,19.06,19.06,0,0,0,.23-4.08,18.16,18.16,0,0,0-.87-4.59,17,17,0,0,0-.94-2.33,17.53,17.53,0,0,0-1.34-2.27,17,17,0,0,0-1.71-2.11,18.67,18.67,0,0,0-2.08-1.88,18.15,18.15,0,0,0-2.35-1.53,16.63,16.63,0,0,0-2.49-1.11,17.1,17.1,0,0,0-2.53-.71,16.74,16.74,0,0,0-2.5-.31,18.05,18.05,0,0,0-4.66.35,18.4,18.4,0,0,0-3.88,1.27,19.45,19.45,0,0,0-5,3.3c-1,1-1.58,1.56-1.66,1.49s.31-.77,1.27-1.87a16.81,16.81,0,0,1,4.91-3.8,18.06,18.06,0,0,1,4.06-1.52,18.36,18.36,0,0,1,5-.5,17.83,17.83,0,0,1,2.69.29,18.15,18.15,0,0,1,2.74.72,18.77,18.77,0,0,1,2.69,1.18,20.51,20.51,0,0,1,2.55,1.65,18.59,18.59,0,0,1,4.07,4.32,18.42,18.42,0,0,1,1.4,2.46,18.82,18.82,0,0,1,1,2.53,18.4,18.4,0,0,1,.79,4.93,18.71,18.71,0,0,1-.42,4.31,17,17,0,0,1-2.4,5.72C603,332,602.38,332.54,602.31,332.49Z" transform="translate(-21.29 -24.85)"/><path class="cls-3" d="M582.63,331.1l-2,2.47-2.21-1.75,1.91-2.41a13.42,13.42,0,0,1-4.09-6.15l3.36-1.73a11.34,11.34,0,0,0,3,5l2.94-3.69c-2-2.55-4.07-5.55-1.56-8.71,1.87-2.35,5.17-3,9-.62l2-2.46,2.21,1.76-1.91,2.41a12.79,12.79,0,0,1,3.41,4.92L595.42,322a11.56,11.56,0,0,0-2.47-3.84l-3,3.76c2,2.53,4,5.49,1.57,8.61C589.7,332.79,586.43,333.44,582.63,331.1Zm5.56-11.53,2.5-3.14c-1.38-.67-2.36-.4-2.94.33S587.47,318.48,588.19,319.57Zm-.43,8.35c.61-.77.3-1.7-.38-2.79L585,328.18C586.25,328.82,587.19,328.63,587.76,327.92Z" transform="translate(-21.29 -24.85)"/><path class="cls-6" d="M664.33,100.81,628.19,42.59a6.77,6.77,0,0,0-4.47-3.15L591.78,33a6.79,6.79,0,0,0-7.85,4.74L574.73,69a6.79,6.79,0,0,0,.7,5.42l36.14,58.22a6.78,6.78,0,0,0,9.31,2.31L662,110.12A6.78,6.78,0,0,0,664.33,100.81ZM599.66,54.58A6.37,6.37,0,1,1,602.4,46,6.36,6.36,0,0,1,599.66,54.58Z" transform="translate(-21.29 -24.85)"/><path class="cls-7" d="M664.33,100.81,628.19,42.59a6.77,6.77,0,0,0-4.47-3.15L591.78,33a6.79,6.79,0,0,0-7.85,4.74L574.73,69a6.79,6.79,0,0,0,.7,5.42l36.14,58.22a6.78,6.78,0,0,0,9.31,2.31L662,110.12A6.78,6.78,0,0,0,664.33,100.81ZM599.66,54.58A6.37,6.37,0,1,1,602.4,46,6.36,6.36,0,0,1,599.66,54.58Z" transform="translate(-21.29 -24.85)"/><path class="cls-8" d="M595.11,92.12c-3.53-5.68-2.1-11.32,2.74-14.33S608.42,76,612,81.64,614.05,93,609.17,96,598.67,97.84,595.11,92.12Zm11.17-7c-2.08-3.33-4.07-3.91-5.66-2.92s-2,3,.12,6.37,4.15,3.85,5.66,2.92S608.35,88.51,606.28,85.17Zm11.26-19,6.75-4.2-2,46.8-6.76,4.2Zm10.38,27.06c-3.53-5.68-2.15-11.29,2.73-14.33s10.58-1.82,14.11,3.85S646.85,94,642,97.07,631.48,98.91,627.92,93.19Zm11.16-7c-2.07-3.33-4.11-3.88-5.65-2.92s-2,3,.12,6.37,4.1,3.88,5.65,2.92S641.15,89.58,639.08,86.24Z" transform="translate(-21.29 -24.85)"/><path class="cls-9" d="M720.27,237.06l-25.93-7.46a.84.84,0,0,1-.57-1,.83.83,0,0,1,1-.56l25.26,7.27,7.39-15.09-30.52-8.79a.83.83,0,0,1-.57-1,.84.84,0,0,1,1-.57l31.47,9.06a.85.85,0,0,1,.52.46.82.82,0,0,1,0,.7l-8.13,16.6A.83.83,0,0,1,720.27,237.06Z" transform="translate(-21.29 -24.85)"/><path class="cls-9" d="M717.65,242.93h0L693,235.74a.83.83,0,0,1-.59-.92l4.38-28.5-7.23-2.08a.84.84,0,0,1-.57-1,.83.83,0,0,1,1-.56l7.93,2.28a.83.83,0,0,1,.59.92l-4.39,28.5,24,7a.83.83,0,0,1,.56,1A.82.82,0,0,1,717.65,242.93Z" transform="translate(-21.29 -24.85)"/><path class="cls-9" d="M694.45,245.77a4,4,0,1,1,5-2.76A4,4,0,0,1,694.45,245.77Zm1.77-6.15a2.37,2.37,0,1,0,1.63,2.94A2.38,2.38,0,0,0,696.22,239.62Z" transform="translate(-21.29 -24.85)"/><path class="cls-9" d="M711.5,250.68a4,4,0,1,1,5-2.76A4,4,0,0,1,711.5,250.68Zm1.77-6.15a2.37,2.37,0,1,0,1.62,2.93A2.38,2.38,0,0,0,713.27,244.53Z" transform="translate(-21.29 -24.85)"/><path class="cls-9" d="M702.34,231.9a.82.82,0,0,1-.57-1l3.81-17.23a.83.83,0,1,1,1.62.36l-3.82,17.22a.82.82,0,0,1-1,.63Z" transform="translate(-21.29 -24.85)"/><path class="cls-9" d="M711.83,234.63h-.05a.84.84,0,0,1-.51-1.06l5.82-16.65a.83.83,0,0,1,1.56.54l-5.81,16.66A.83.83,0,0,1,711.83,234.63Z" transform="translate(-21.29 -24.85)"/><path class="cls-9" d="M695.29,220.71a.84.84,0,0,1-.57-1,.82.82,0,0,1,1-.57l29,8h0a.83.83,0,1,1-.45,1.59l-29-8Z" transform="translate(-21.29 -24.85)"/></g><g id="Floor"><path class="cls-10" d="M51.4,403.27c0-.15,144.89-.26,323.58-.26s323.62.11,323.62.26-144.86.26-323.62.26S51.4,403.41,51.4,403.27Z" transform="translate(-21.29 -24.85)"/></g><g id="Plant"><path class="cls-9" d="M89.69,267.87c-7.13,3.69-12.61,10.06-16.54,17.06s-6.47,14.7-9,22.33L62,346.62c8.3-14.12,15-30.72,16.77-47l-5.53-.49c3.71-.56,6.82-3.25,8.79-6.43s3-6.85,4-10.46l-6.73,1A25,25,0,0,0,89.69,267.87Z" transform="translate(-21.29 -24.85)"/><path class="cls-9" d="M60.74,355.84s-18-21.56-17.81-42.15h7.28s-7.9-5.2-7.28-8.11.84-13.94.84-13.94l6.65,1.67s-5-2.5-5.61-6.45,1.45-22.25,1.45-22.25,8.11,8.53,10.61,17.26,9,18.92,7.12,45.54S60.74,355.84,60.74,355.84Z" transform="translate(-21.29 -24.85)"/><path class="cls-9" d="M69.88,357.88s19.52-13,23.86-29.6l-5.85-1.6s7.49-2.45,7.62-4.92,2.38-11.39,2.38-11.39l-5.71-.12s4.56-.91,5.92-3.95,3.7-18.21,3.7-18.21-8.39,5.08-12.3,11.56S78.08,312.88,73.81,334.7,69.88,357.88,69.88,357.88Z" transform="translate(-21.29 -24.85)"/><path class="cls-10" d="M51.18,283.41a.74.74,0,0,1,.08.22c0,.18.1.4.16.67.15.62.34,1.48.59,2.55.51,2.22,1.18,5.45,2,9.45,1.54,8,3.36,19.11,4.79,31.46s2.19,23.59,2.51,31.73c.17,4.07.25,7.36.26,9.64,0,1.1,0,2,0,2.62,0,.27,0,.5,0,.68s0,.23,0,.23,0-.07,0-.23,0-.41,0-.68c0-.64-.06-1.51-.11-2.62-.07-2.27-.21-5.56-.43-9.63-.41-8.12-1.23-19.34-2.66-31.68S55,304.38,53.59,296.37c-.72-4-1.33-7.24-1.78-9.48-.2-1.08-.37-1.94-.49-2.57,0-.27-.08-.49-.11-.67A1.36,1.36,0,0,1,51.18,283.41Z" transform="translate(-21.29 -24.85)"/><path class="cls-9" d="M58.25,369.05s-16.49-18.71-21.61-30l3.86-1.65a10,10,0,0,1-7.84-2.57,29.86,29.86,0,0,1-5.33-6.6l5.09-.87a18.9,18.9,0,0,1-11.13-8.61c6,1,11.45,4.29,15.93,8.41a79.8,79.8,0,0,1,9.64,11.18,37.94,37.94,0,0,1,3.75,6.16C53.38,350.21,58.25,362.18,58.25,369.05Z" transform="translate(-21.29 -24.85)"/><path class="cls-10" d="M94,299a6.74,6.74,0,0,1-.32.74l-1,2.09c-.88,1.8-2.12,4.41-3.63,7.66-3,6.49-7,15.54-10.95,25.72s-7.07,19.57-9.2,26.4c-1.07,3.42-1.91,6.19-2.48,8.11l-.67,2.2a4.5,4.5,0,0,1-.26.76,4.6,4.6,0,0,1,.16-.78c.15-.56.34-1.3.58-2.24.5-1.93,1.29-4.72,2.32-8.16,2-6.86,5.13-16.27,9.07-26.48s8-19.23,11.1-25.69c1.55-3.23,2.84-5.82,3.77-7.59q.67-1.29,1.08-2A3.79,3.79,0,0,1,94,299Z" transform="translate(-21.29 -24.85)"/><path class="cls-10" d="M59.64,377.07a7.8,7.8,0,0,1-.27-1.34c-.14-.86-.36-2.1-.67-3.63a77.28,77.28,0,0,0-3.36-11.68,76.33,76.33,0,0,0-5.2-11c-.78-1.35-1.43-2.43-1.9-3.16a7,7,0,0,1-.67-1.19,6.51,6.51,0,0,1,.84,1.07c.52.71,1.22,1.76,2.05,3.1a66.38,66.38,0,0,1,5.37,11A66,66,0,0,1,59.06,372c.26,1.55.43,2.8.51,3.68A6.34,6.34,0,0,1,59.64,377.07Z" transform="translate(-21.29 -24.85)"/><rect class="cls-11" x="24.02" y="347.81" width="36.09" height="7.36"/><polygon class="cls-11" points="27.46 355.17 31.36 379.94 53.17 379.94 56.81 355.17 27.46 355.17"/><path class="cls-10" d="M79.19,380c0,.14-5.85.26-13.06.26s-13.06-.12-13.06-.26,5.85-.26,13.06-.26S79.19,379.88,79.19,380Z" transform="translate(-21.29 -24.85)"/></g><g id="Purchase"><path class="cls-12" d="M509.88,361.42s-7.31.43-7.9,1.7c0,0-.09,5.39,5.08,10.81l-1,2.21v3.59c2.41-4.67,5.1-11.81,5.1-11.81S511.25,362.9,509.88,361.42Z" transform="translate(-21.29 -24.85)"/><g class="cls-13"><path d="M509.62,361.9s-2.55,6.63-1,11.4C508.64,373.3,512.14,367.45,509.62,361.9Z" transform="translate(-21.29 -24.85)"/></g><path class="cls-12" d="M521.12,370.35s-3.39-6.49-4.8-6.5c0,0-4.94,2.12-7.76,9.07l-2.43,0a14,14,0,0,0-7.79-8.65s-3.71,6.69-3.83,6.62a13.16,13.16,0,0,0,8.35,3.5c5.24.27,12.86-.21,12.86-.21S520.34,372.2,521.12,370.35Z" transform="translate(-21.29 -24.85)"/><g class="cls-13"><path d="M504.87,373.8s-5.48-3.16-9.91-2.87C495,370.93,500.09,375.26,504.87,373.8Z" transform="translate(-21.29 -24.85)"/></g><g class="cls-13"><path d="M520.58,370.31s-7.09.4-10.8,3.79C509.78,374.1,516.57,374.89,520.58,370.31Z" transform="translate(-21.29 -24.85)"/></g><polygon class="cls-11" points="510.5 349.29 508.56 378.42 463.6 377.99 463.25 348.85 510.5 349.29"/><g class="cls-13"><polygon points="501.96 349.21 501.69 378.35 508.56 378.42 510.5 349.29 501.96 349.21"/></g><polygon class="cls-12" points="507.12 349.26 505.7 378.39 504.14 378.37 504.41 349.23 507.12 349.26"/><rect class="cls-12" x="489.56" y="386.58" width="29.14" height="3.75" transform="matrix(0.01, -1, 1, 0.01, 89.68, 864.07)"/><rect class="cls-12" x="463.4" y="361.68" width="46.08" height="2.83"/><path class="cls-10" d="M554.17,346.26a36.71,36.71,0,0,0-1.39-6.65,19.34,19.34,0,0,0-3.18-6.1,7.47,7.47,0,0,0-12.46-.05,19.33,19.33,0,0,0-3.2,6.08,37.93,37.93,0,0,0-1.41,6.64,3.11,3.11,0,0,1,0-.49c0-.32,0-.78.11-1.38a26.44,26.44,0,0,1,1-4.92,19.46,19.46,0,0,1,3.21-6.29,8.44,8.44,0,0,1,6.5-3.5,8.53,8.53,0,0,1,6.48,3.55,19.31,19.31,0,0,1,3.19,6.32,25.48,25.48,0,0,1,1,4.92,12.57,12.57,0,0,1,.1,1.38A1.56,1.56,0,0,1,554.17,346.26Z" transform="translate(-21.29 -24.85)"/><path class="cls-10" d="M557.91,346.26a37.83,37.83,0,0,0-1.39-6.65,19.55,19.55,0,0,0-3.18-6.1,7.47,7.47,0,0,0-12.46-.05,19.36,19.36,0,0,0-3.21,6.08,36.14,36.14,0,0,0-1.4,6.64,1.56,1.56,0,0,1,0-.49c0-.32,0-.78.1-1.38a25.8,25.8,0,0,1,1-4.92,19.46,19.46,0,0,1,3.21-6.29,8.44,8.44,0,0,1,6.5-3.5,8.53,8.53,0,0,1,6.48,3.55,19.71,19.71,0,0,1,3.19,6.32,26.27,26.27,0,0,1,1,4.92c.06.6.09,1.06.1,1.38A3.11,3.11,0,0,1,557.91,346.26Z" transform="translate(-21.29 -24.85)"/><polygon class="cls-11" points="498.68 318.52 540.88 318.19 541.8 378.16 494.44 378.16 498.68 318.52"/><polygon class="cls-14" points="540.88 318.19 546.18 318.19 550.74 378.16 541.8 378.16 540.88 318.19"/><rect class="cls-8" x="506.05" y="338.56" width="27.63" height="6.06"/><g class="cls-13"><polygon class="cls-11" points="540.88 318.19 546.18 318.19 550.74 378.16 541.8 378.16 540.88 318.19"/></g><path class="cls-10" d="M515.73,403c-.14,0,.44-10.37,1.3-23.14s1.68-23.12,1.82-23.11-.43,10.37-1.3,23.14S515.88,403,515.73,403Z" transform="translate(-21.29 -24.85)"/></g><g id="Device"><path class="cls-15" d="M540.68,64.94H161.45a11.83,11.83,0,0,0-11.84,11.83V344.63a11.84,11.84,0,0,0,11.84,11.84H307l-7.06,46.8H405.47l-5.89-46.8h141.1a11.84,11.84,0,0,0,11.84-11.84V76.77A11.83,11.83,0,0,0,540.68,64.94Z" transform="translate(-21.29 -24.85)"/><path class="cls-10" d="M356.13,328.3c5.16,7.37-2.92,15.45-10.29,10.29a2.43,2.43,0,0,1-.64-.64c-5.14-7.37,2.92-15.43,10.29-10.28A2.56,2.56,0,0,1,356.13,328.3Z" transform="translate(-21.29 -24.85)"/><path class="cls-10" d="M148.62,50.31H511a9.7,9.7,0,0,1,9.7,9.7V282.62a0,0,0,0,1,0,0H138.92a0,0,0,0,1,0,0V60A9.7,9.7,0,0,1,148.62,50.31Z"/><path class="cls-10" d="M438.7,356.47c0,.13-31.79.24-71,.24s-71-.11-71-.24,31.79-.23,71-.23S438.7,356.35,438.7,356.47Z" transform="translate(-21.29 -24.85)"/><rect class="cls-8" x="149.27" y="59.91" width="361.49" height="213.1"/><rect class="cls-9" x="149.27" y="59.91" width="361.49" height="17.71"/><path class="cls-8" d="M184.62,94a2.54,2.54,0,1,1-2.54-2.46A2.5,2.5,0,0,1,184.62,94Z" transform="translate(-21.29 -24.85)"/><path class="cls-8" d="M192.19,94a2.54,2.54,0,1,1-2.54-2.46A2.5,2.5,0,0,1,192.19,94Z" transform="translate(-21.29 -24.85)"/><path class="cls-8" d="M199.39,94a2.54,2.54,0,1,1-2.54-2.46A2.5,2.5,0,0,1,199.39,94Z" transform="translate(-21.29 -24.85)"/><rect class="cls-9" x="149.21" y="103.99" width="361.63" height="76.19"/><rect class="cls-11" x="164.05" y="87.97" width="35.34" height="9"/><rect class="cls-3" x="421.42" y="85.93" width="25.59" height="9"/><rect class="cls-3" x="379.59" y="85.69" width="25.59" height="9"/><path class="cls-11" d="M337.82,194.42a3.22,3.22,0,1,1-3.21-3.11A3.16,3.16,0,0,1,337.82,194.42Z" transform="translate(-21.29 -24.85)"/><path class="cls-8" d="M350.62,194.42a3.22,3.22,0,1,1-3.21-3.11A3.16,3.16,0,0,1,350.62,194.42Z" transform="translate(-21.29 -24.85)"/><path class="cls-8" d="M362.84,194.42a3.22,3.22,0,1,1-3.21-3.11A3.16,3.16,0,0,1,362.84,194.42Z" transform="translate(-21.29 -24.85)"/><rect class="cls-8" x="179.55" y="160.32" width="94.59" height="9.48"/><rect class="cls-3" x="187.18" y="194.03" width="54.66" height="47.68"/><rect class="cls-3" x="304.94" y="193.18" width="46.09" height="46.09"/><rect class="cls-3" x="410.64" y="191.76" width="48.92" height="48.92"/><path class="cls-11" d="M269.43,230.76s-13.7-15.49-15.43-16.48a13.66,13.66,0,0,0-3.76-1.09,17.15,17.15,0,0,0-2.28-.33h-.15c-4.2-.37-10.56-.19-10.56-.19s-.11,5.59-7.24,7.94c-7.33,1.6-10.27-3.17-10.27-3.17s-5.57,3.07-9,5.52h0l-.13.09a17.05,17.05,0,0,0-1.8,1.44,13.53,13.53,0,0,0-2.69,2.85c-1,1.73-4.93,22-4.93,22l14.67,2.94,1.49-10,7.92,32.58,17.43-4.75,1.48-.41,17.64-4.81-9.91-32,6.36,7.86Z" transform="translate(-21.29 -24.85)"/><path class="cls-10" d="M219.54,250.3a21.3,21.3,0,0,1-.91-2.93c-.5-1.83-1.17-4.4-1.91-7.29l.05.08-.86-1.13c-2-2.66-3.79-5.08-5.06-6.84-.63-.88-1.14-1.6-1.48-2.11a3.75,3.75,0,0,1-.5-.81,3.49,3.49,0,0,1,.65.69c.39.47.94,1.16,1.61,2,1.35,1.71,3.18,4.09,5.18,6.74l.85,1.15,0,0v0c.72,2.91,1.33,5.48,1.75,7.34A20,20,0,0,1,219.54,250.3Z" transform="translate(-21.29 -24.85)"/><path class="cls-10" d="M254,240.89a20.2,20.2,0,0,1-1-2.88c-.58-1.81-1.36-4.35-2.22-7.21v-.1c.06-.45.11-.93.16-1.42.38-3.3.75-6.28,1-8.44.14-1.08.27-2,.37-2.55a4.07,4.07,0,0,1,.2-.93,3.21,3.21,0,0,1,0,.95c0,.61-.11,1.49-.21,2.57-.2,2.17-.51,5.16-.89,8.46-.05.49-.11,1-.16,1.42v-.1c.84,2.87,1.56,5.42,2.06,7.25A20.91,20.91,0,0,1,254,240.89Z" transform="translate(-21.29 -24.85)"/><path class="cls-8" d="M238.16,228.33h11a0,0,0,0,1,0,0v7a4.94,4.94,0,0,1-4.94,4.94H243.1a4.94,4.94,0,0,1-4.94-4.94v-7a0,0,0,0,1,0,0Z" transform="translate(-74.15 47.15) rotate(-15.18)"/><path class="cls-10" d="M243.38,240.38a5,5,0,0,1-4.79-3.67L236.76,230h0l10.62-2.88v0l1.83,6.72a5,5,0,0,1-3.5,6.1l-1,.28A4.85,4.85,0,0,1,243.38,240.38ZM236.82,230l1.82,6.71a4.92,4.92,0,0,0,6,3.46l1.05-.29a4.92,4.92,0,0,0,3.46-6l-1.82-6.71Z" transform="translate(-21.29 -24.85)"/><path class="cls-10" d="M246,239.73s.36-.13.94-.46a4.39,4.39,0,0,0,2.16-4.07,14.85,14.85,0,0,0-.55-2.3c-.47-1.66-1-3.49-1.53-5.46l.29.17-5.86,1.61-4.3,1.16.17-.3c.58,2.18,1.13,4.21,1.62,6.06.13.46.23.92.38,1.31a4.22,4.22,0,0,0,2.36,2.4,4.72,4.72,0,0,0,3.15.12,6.42,6.42,0,0,1,1.17-.24,6,6,0,0,1-1.13.4,4.7,4.7,0,0,1-3.31,0A4.6,4.6,0,0,1,239,237.6a12.42,12.42,0,0,1-.42-1.35c-.51-1.84-1.08-3.87-1.68-6l-.06-.23.23-.07,4.3-1.17,5.87-1.59.23-.07.06.24c.53,2,1,3.81,1.46,5.48a13.22,13.22,0,0,1,.52,2.38,4.76,4.76,0,0,1-.41,2.09,4.46,4.46,0,0,1-2,2.14,3.6,3.6,0,0,1-.74.28C246.14,239.73,246.05,239.75,246,239.73Z" transform="translate(-21.29 -24.85)"/><rect class="cls-3" x="191.42" y="251.66" width="47.68" height="6.37"/><rect class="cls-3" x="303.06" y="251.66" width="47.68" height="6.37"/><rect class="cls-3" x="414.76" y="251.82" width="45.27" height="6.05"/><path class="cls-14" d="M490.83,255.78c-.57-2-3.16-2-5.05-2.85a56.07,56.07,0,0,1-13.24-8.17L432,242l-.15,1.63C441.09,257,458.2,266.81,474.43,266a27,27,0,0,0,12.48-3.32C489,261.37,491.51,258.16,490.83,255.78Z" transform="translate(-21.29 -24.85)"/><g class="cls-13"><path d="M490.83,255.78c-.57-2-3.16-2-5.05-2.85a56.07,56.07,0,0,1-13.24-8.17L432,242l-.15,1.63C441.09,257,458.2,266.81,474.43,266a27,27,0,0,0,12.48-3.32C489,261.37,491.51,258.16,490.83,255.78Z" transform="translate(-21.29 -24.85)"/></g><path class="cls-11" d="M474.71,234.21c-2-4.8-4.87-9.31-10.21-11.7A23.07,23.07,0,0,0,443.72,224c-6.06,3.53-10.84,12.3-11.86,18.61,13.93,12.72,41.76,15,46.11,7.15C478.5,244.8,476.74,239,474.71,234.21Z" transform="translate(-21.29 -24.85)"/><path class="cls-11" d="M490.7,255c-.57-2-2.74-3-4.63-3.79a56.28,56.28,0,0,1-13.24-8.17l-41-.47c9.27,13.35,26.63,22.52,42.86,21.66A27,27,0,0,0,487.2,261C489.32,259.69,491.38,257.42,490.7,255Z" transform="translate(-21.29 -24.85)"/><path class="cls-10" d="M478.42,247.16a1.86,1.86,0,0,1-.05.52,8.77,8.77,0,0,1-.43,1.47,8.19,8.19,0,0,1-3.74,4.1,13.21,13.21,0,0,1-3.65,1.31,20.79,20.79,0,0,1-2.14.31c-.74.08-1.5.14-2.28.15a44.13,44.13,0,0,1-10.1-1,59.86,59.86,0,0,1-17.17-6.5,55.55,55.55,0,0,1-4.68-3l-1.2-.93a2.25,2.25,0,0,1-.39-.35,2,2,0,0,1,.46.26l1.25.85c1.09.73,2.7,1.73,4.74,2.88a63.62,63.62,0,0,0,17.1,6.31,44.92,44.92,0,0,0,10,1,20.62,20.62,0,0,0,2.25-.13,19.39,19.39,0,0,0,2.1-.27,13.26,13.26,0,0,0,3.57-1.21,8.15,8.15,0,0,0,3.72-3.86A20,20,0,0,0,478.42,247.16Z" transform="translate(-21.29 -24.85)"/><path class="cls-16" d="M469.28,254.55" transform="translate(-21.29 -24.85)"/><path class="cls-10" d="M469.28,254.55a5.47,5.47,0,0,1,0-.71q0-.78,0-2c.07-1.77,0-4.34-.13-7.49a51.16,51.16,0,0,0-1.82-10.92,28.48,28.48,0,0,0-2.51-6,13.94,13.94,0,0,0-4.68-5,4.78,4.78,0,0,0-.68-.34h.14a14.84,14.84,0,0,0-6.15,2.78,27.73,27.73,0,0,0-4.46,4.55,41.17,41.17,0,0,0-5.72,9.15c-1.29,2.8-2.11,5.16-2.72,6.78l-.71,1.86a3.75,3.75,0,0,1-.27.63,2.84,2.84,0,0,1,.18-.67c.15-.48.36-1.11.61-1.89.55-1.63,1.32-4,2.57-6.86a40.53,40.53,0,0,1,5.69-9.3,27.46,27.46,0,0,1,4.52-4.65,15.25,15.25,0,0,1,6.35-2.89l.08,0,.06,0a4.54,4.54,0,0,1,.77.37,14.47,14.47,0,0,1,4.86,5.21,28.45,28.45,0,0,1,2.53,6.12,50,50,0,0,1,1.73,11,72,72,0,0,1,0,7.53c-.05.84-.09,1.52-.13,2A2.88,2.88,0,0,1,469.28,254.55Z" transform="translate(-21.29 -24.85)"/><path class="cls-10" d="M459.72,220.29H460a1.14,1.14,0,0,1,1.14,1.14v.89a0,0,0,0,1,0,0h-2.53a0,0,0,0,1,0,0v-.89A1.14,1.14,0,0,1,459.72,220.29Z" transform="translate(23.16 -99.99) rotate(9.81)"/><path class="cls-8" d="M459,241.08l-1,4.61s6.09,3.32,11.82,2.18a8.7,8.7,0,0,0,5.36-3l-.39-4s-1.63,1.87-6.55,2C464.58,243,459,241.08,459,241.08Z" transform="translate(-21.29 -24.85)"/><path class="cls-10" d="M488.81,259.58s-.09.12-.31.31a8.48,8.48,0,0,1-1,.79,17.77,17.77,0,0,1-4.16,2.15,34.55,34.55,0,0,1-15.26,1.73,46.68,46.68,0,0,1-14.76-4.33c-1.78-.85-3.18-1.61-4.13-2.17-.48-.27-.84-.5-1.09-.65a1.61,1.61,0,0,1-.36-.26,10.55,10.55,0,0,1,1.54.74c1,.5,2.4,1.21,4.2,2A49.33,49.33,0,0,0,468.14,264a36.08,36.08,0,0,0,15.07-1.55A22.86,22.86,0,0,0,488.81,259.58Z" transform="translate(-21.29 -24.85)"/><path class="cls-17" d="M320.4,233s5.45-10.29,12.07-11c0,0,12.21,7,14.08,6.55s-.85-4,1.72-6,5.15.24,6.2,1.78,8.41,18.35,14.64,22.63,16,12.86,14.44,16.72c-1.18,2.88-.87,1.83-6.39,2.87s-23.8-7.77-29.69-13.76C338.22,243.48,326.47,233.53,320.4,233Z" transform="translate(-21.29 -24.85)"/><path class="cls-8" d="M381.33,267.76a1.25,1.25,0,0,0-.79-2.33,5.87,5.87,0,0,1-1,.11c-3.74.12-8.55-1.31-14.52-3.9s-8.14-4.3-15.7-10S335.51,236,329.56,234.3a27.09,27.09,0,0,0-8.87-1.3,1.11,1.11,0,0,0-.53.17c-4.14,2.49-11.79,12.36-7.82,15,2.75,1.81,12.27,3,19,5.3s21.47,8.81,29.84,11.71,16.89,4.2,20.1,2.66Z" transform="translate(-21.29 -24.85)"/><path class="cls-10" d="M381.33,267.76a1.29,1.29,0,0,1-.39.19,6,6,0,0,1-1.2.37,18.23,18.23,0,0,1-4.82.13,64.36,64.36,0,0,1-17.18-4.33c-7-2.61-15.2-6.16-24.43-9.69-4.6-1.83-9.7-2.8-14.95-4-1.31-.32-2.64-.64-3.95-1.07a11.37,11.37,0,0,1-2-.82,2.64,2.64,0,0,1-1.37-1.73,6.77,6.77,0,0,1,.77-4.23,21.55,21.55,0,0,1,2.22-3.68,29.1,29.1,0,0,1,2.77-3.28,16.5,16.5,0,0,1,3.31-2.72,2.94,2.94,0,0,1,1.13-.15c.35,0,.7,0,1,0,.7,0,1.39.1,2.08.19a33.24,33.24,0,0,1,4,.8,12.33,12.33,0,0,1,3.76,1.52,23.48,23.48,0,0,1,3.15,2.42c1.94,1.74,3.66,3.61,5.37,5.4A69.43,69.43,0,0,0,351,252.58a80.54,80.54,0,0,0,10,6.93c6.64,3.37,12.43,5.43,16.58,5.86a12,12,0,0,0,2.75,0,1.47,1.47,0,0,1,1.12.17,1.35,1.35,0,0,1,.53.79,1.21,1.21,0,0,1-.31,1.19,1,1,0,0,1-.26.19l-.1,0a2.73,2.73,0,0,0,.32-.27,1.15,1.15,0,0,0,.25-1.13,1.25,1.25,0,0,0-.5-.7,1.34,1.34,0,0,0-1-.13,11.2,11.2,0,0,1-2.8,0,31.49,31.49,0,0,1-7.43-1.76,71.56,71.56,0,0,1-9.3-4,78.38,78.38,0,0,1-10.13-6.91,49.87,49.87,0,0,1-5.27-4.36c-1.71-1.61-3.38-3.36-5.08-5.16s-3.44-3.64-5.35-5.36a23.49,23.49,0,0,0-3.08-2.36,11.67,11.67,0,0,0-3.63-1.46,34.65,34.65,0,0,0-4-.78c-.67-.09-1.35-.15-2-.18-.34,0-.68,0-1,0a2.51,2.51,0,0,0-.92.1,16.42,16.42,0,0,0-3.16,2.61,30.05,30.05,0,0,0-2.72,3.22,21.79,21.79,0,0,0-2.17,3.6,6.43,6.43,0,0,0-.74,3.88c.27,1.3,1.75,1.74,3,2.19s2.6.75,3.91,1.06c5.22,1.24,10.37,2.23,15,4.08,9.25,3.57,17.41,7.14,24.4,9.79a66,66,0,0,0,17.06,4.48,19.39,19.39,0,0,0,4.79,0,7,7,0,0,0,1.2-.32Z" transform="translate(-21.29 -24.85)"/><path class="cls-8" d="M361.8,238c0,.15-1.28.35-2.76.93s-2.57,1.29-2.66,1.17a5,5,0,0,1,2.48-1.65A4.86,4.86,0,0,1,361.8,238Z" transform="translate(-21.29 -24.85)"/><path class="cls-8" d="M364.42,241.61a8.62,8.62,0,0,1-2.48,1.71,9.05,9.05,0,0,1-2.74,1.26,8.8,8.8,0,0,1,2.48-1.71A9.17,9.17,0,0,1,364.42,241.61Z" transform="translate(-21.29 -24.85)"/><path class="cls-8" d="M367.38,245.21c.09.12-.73.93-1.73,1.92s-1.84,1.78-1.95,1.69.56-1.06,1.58-2.07S367.29,245.1,367.38,245.21Z" transform="translate(-21.29 -24.85)"/><rect class="cls-14" x="319.3" y="242.05" width="9.1" height="2.22" rx="1" transform="translate(58.59 -104.93) rotate(16.06)"/><path class="cls-14" d="M331,222.87a5.65,5.65,0,0,0-1-2.35,1.5,1.5,0,0,0-.89-.7,1.76,1.76,0,0,0-1.16.38l-.95.6c-.2.13-.42.28-.44.51a.76.76,0,0,0,.17.48l1.39,2.14" transform="translate(-21.29 -24.85)"/><path class="cls-10" d="M332.47,222.06c0,.09-.89.35-2.25,1a21.29,21.29,0,0,0-4.81,3.43,23.75,23.75,0,0,0-3.76,4.58c-.8,1.29-1.19,2.16-1.27,2.13a7.56,7.56,0,0,1,.95-2.32,19.37,19.37,0,0,1,3.73-4.76,17.41,17.41,0,0,1,5-3.39A6.63,6.63,0,0,1,332.47,222.06Z" transform="translate(-21.29 -24.85)"/><path class="cls-10" d="M328.78,223.65c-.15,0-.39-.64-1-1.27s-1.18-1-1.13-1.12.87,0,1.53.78S328.92,223.64,328.78,223.65Z" transform="translate(-21.29 -24.85)"/><g class="cls-13"><path d="M347.11,228.17c.14-.46,5.47,8.3,9.07,11.71-4-2.95-8.12-7.72-11.27-11.58C344.91,228.3,346.79,229.23,347.11,228.17Z" transform="translate(-21.29 -24.85)"/></g><path class="cls-18" d="M369.2,249.34a1.68,1.68,0,0,1-.73.34,5.42,5.42,0,0,1-2.2.19,7.74,7.74,0,0,1-3.09-1.06,13.14,13.14,0,0,1-3-2.59c-.46-.53-.89-1.07-1.29-1.59s-.74-1-1.09-1.55L356,240.44a17,17,0,0,1-1.57-2.51,16.83,16.83,0,0,1,1.87,2.29c.57.78,1.21,1.64,1.91,2.57l1.11,1.53c.4.51.83,1,1.28,1.55a13.38,13.38,0,0,0,2.88,2.53,7.72,7.72,0,0,0,2.89,1.1A8.05,8.05,0,0,0,369.2,249.34Z" transform="translate(-21.29 -24.85)"/><path class="cls-8" d="M359.92,238.38a3.1,3.1,0,0,1-.22-1,14,14,0,0,1-.1-2.76,15.69,15.69,0,0,1,.76-4,14.6,14.6,0,0,1,.92-2.25,10.78,10.78,0,0,1,.63-1.14,2.05,2.05,0,0,1,.53-.53,1,1,0,0,1,.84-.12,1.49,1.49,0,0,1,.85,1.25,8.4,8.4,0,0,1,.08,1.3,12.65,12.65,0,0,1-.2,2.43,13.32,13.32,0,0,1-1.35,3.88,11.79,11.79,0,0,1-1.57,2.28,2.92,2.92,0,0,1-.73.69,26.2,26.2,0,0,0,2-3.13,13.82,13.82,0,0,0,1.2-3.8,11.89,11.89,0,0,0,.17-2.34,8.15,8.15,0,0,0-.08-1.22c-.06-.38-.24-.77-.5-.85s-.56.13-.78.46a11,11,0,0,0-.61,1.07,16.56,16.56,0,0,0-.92,2.17,17.14,17.14,0,0,0-.84,3.91C359.75,237,360,238.37,359.92,238.38Z" transform="translate(-21.29 -24.85)"/><path class="cls-8" d="M360,238.17a3.82,3.82,0,0,1,.62-.84c.43-.51,1.06-1.25,1.9-2.11a19.74,19.74,0,0,1,3.22-2.74,13,13,0,0,1,2.21-1.21,4.3,4.3,0,0,1,1.33-.4,1.51,1.51,0,0,1,1.43.59,1.77,1.77,0,0,1,.14,1.53,4.16,4.16,0,0,1-.7,1.2,8.47,8.47,0,0,1-1.89,1.72,12.33,12.33,0,0,1-3.91,1.65,23,23,0,0,1-2.8.51,4.06,4.06,0,0,1-1,.08c0-.1,1.46-.32,3.74-.94a13,13,0,0,0,3.74-1.7,8.14,8.14,0,0,0,1.75-1.63c.52-.63.95-1.48.53-2.13a1,1,0,0,0-.95-.36,3.73,3.73,0,0,0-1.17.35,13.68,13.68,0,0,0-2.15,1.14,24,24,0,0,0-3.23,2.6C361,237.13,360,238.23,360,238.17Z" transform="translate(-21.29 -24.85)"/><rect class="cls-14" x="465.38" y="80.48" width="34.89" height="34.89" rx="3.84"/><path class="cls-8" d="M509.93,125.82H498.4a.51.51,0,0,1-.5-.5.5.5,0,0,1,.5-.5h11.11l1.2-6.77H497.32a.5.5,0,0,1-.5-.5.5.5,0,0,1,.5-.5h14a.52.52,0,0,1,.39.17.51.51,0,0,1,.1.41l-1.37,7.78A.5.5,0,0,1,509.93,125.82Z" transform="translate(-21.29 -24.85)"/><path class="cls-8" d="M509.55,128.54h0l-11,0a.5.5,0,0,1-.49-.44L496.53,116h-3.09a.5.5,0,0,1-.5-.5.5.5,0,0,1,.5-.5H497a.49.49,0,0,1,.5.43L499,127.5l10.54,0a.5.5,0,0,1,.5.5A.51.51,0,0,1,509.55,128.54Z" transform="translate(-21.29 -24.85)"/><path class="cls-8" d="M500.36,132.44a1.87,1.87,0,1,1,1.87-1.86A1.86,1.86,0,0,1,500.36,132.44Zm0-2.73a.87.87,0,1,0,.87.87A.86.86,0,0,0,500.36,129.71Z" transform="translate(-21.29 -24.85)"/><path class="cls-8" d="M507.94,132.44a1.87,1.87,0,1,1,1.86-1.86A1.87,1.87,0,0,1,507.94,132.44Zm0-2.73a.87.87,0,1,0,.86.87A.87.87,0,0,0,507.94,129.71Z" transform="translate(-21.29 -24.85)"/><path class="cls-8" d="M502,125.82a.51.51,0,0,1-.5-.47l-.47-7.52a.5.5,0,0,1,.47-.53.49.49,0,0,1,.53.47l.47,7.52a.5.5,0,0,1-.47.53Z" transform="translate(-21.29 -24.85)"/><path class="cls-8" d="M506.18,125.82h0a.5.5,0,0,1-.47-.53l.42-7.52a.48.48,0,0,1,.52-.47.49.49,0,0,1,.47.52l-.42,7.53A.49.49,0,0,1,506.18,125.82Z" transform="translate(-21.29 -24.85)"/><path class="cls-8" d="M497.74,122.06a.51.51,0,0,1-.5-.5.5.5,0,0,1,.5-.5l12.87-.13a.51.51,0,0,1,.5.5.49.49,0,0,1-.49.5l-12.87.13Z" transform="translate(-21.29 -24.85)"/><path class="cls-8" d="M207.71,175.06a20.46,20.46,0,0,1-5.68-2l3.2-7.7a16.92,16.92,0,0,0,4.66,1.86,21.36,21.36,0,0,0,5.22.67,7.92,7.92,0,0,0,2.81-.34,1.09,1.09,0,0,0,.81-1c0-.45-.34-.76-1-.93a25,25,0,0,0-3.29-.52,44.3,44.3,0,0,1-5.89-1.06,9.21,9.21,0,0,1-4.26-2.51,7.23,7.23,0,0,1-1.84-5.32,7.88,7.88,0,0,1,1.66-4.92,11.14,11.14,0,0,1,4.93-3.46,21.59,21.59,0,0,1,7.89-1.29,33.58,33.58,0,0,1,6.28.59,19.06,19.06,0,0,1,5.24,1.74l-3.2,7.7a16.51,16.51,0,0,0-8.17-2.07c-2.55,0-3.82.45-3.82,1.34,0,.45.34.77,1,1a23.45,23.45,0,0,0,3.26.54,39.65,39.65,0,0,1,5.86,1.09,9.42,9.42,0,0,1,4.24,2.53,7.25,7.25,0,0,1,1.84,5.33,7.74,7.74,0,0,1-1.66,4.81,11.13,11.13,0,0,1-5,3.46,22.08,22.08,0,0,1-8,1.29A33.57,33.57,0,0,1,207.71,175.06Z" transform="translate(-21.29 -24.85)"/><path class="cls-8" d="M261,149.67c2.12,2.1,3.18,5.28,3.18,9.51v16.13H252.54V161.2q0-4.86-3.47-4.86a4.06,4.06,0,0,0-3.18,1.37,6.39,6.39,0,0,0-1.21,4.32v13.28H233V137h11.69v12.36a11.8,11.8,0,0,1,8-2.79A11.42,11.42,0,0,1,261,149.67Z" transform="translate(-21.29 -24.85)"/><path class="cls-8" d="M276.29,173.94a14.45,14.45,0,0,1-5.87-5.22,14.58,14.58,0,0,1,0-15.14,14.34,14.34,0,0,1,5.87-5.2,20.26,20.26,0,0,1,17,0,14.13,14.13,0,0,1,5.84,5.2,14.75,14.75,0,0,1,0,15.14,14.24,14.24,0,0,1-5.84,5.22,20,20,0,0,1-17,0Zm11.76-8.68a6,6,0,0,0,1.29-4.11,5.91,5.91,0,0,0-1.29-4.08,4.5,4.5,0,0,0-6.62,0,5.91,5.91,0,0,0-1.29,4.08,6,6,0,0,0,1.29,4.11,4.46,4.46,0,0,0,6.62,0Z" transform="translate(-21.29 -24.85)"/><path class="cls-8" d="M330.57,148.3a12.92,12.92,0,0,1,5,5.15,17.28,17.28,0,0,1,0,15.48,13,13,0,0,1-5,5.12,13.57,13.57,0,0,1-6.85,1.78c-3.13,0-5.53-.81-7.18-2.43v11.94H304.85V147H316v2.32q2.53-2.84,7.75-2.84A13.57,13.57,0,0,1,330.57,148.3Zm-6.33,17a5.91,5.91,0,0,0,1.29-4.08,6,6,0,0,0-1.29-4.11,4.46,4.46,0,0,0-6.62,0,6,6,0,0,0-1.29,4.11,5.91,5.91,0,0,0,1.29,4.08,4.5,4.5,0,0,0,6.62,0Z" transform="translate(-21.29 -24.85)"/><path class="cls-8" d="M469.51,163.83l-50.76,18a1.87,1.87,0,0,1-1.25-3.52l49.29-17.5-5.47-32.65L401.81,149.3a1.87,1.87,0,0,1-1.25-3.52l61.61-21.87a1.87,1.87,0,0,1,2.47,1.45l6.09,36.4A1.87,1.87,0,0,1,469.51,163.83Z" transform="translate(-21.29 -24.85)"/><path class="cls-8" d="M472.09,176.4h0l-48.41,17a1.87,1.87,0,0,1-2.28-.92l-25.93-51.19-14,5a1.87,1.87,0,1,1-1.25-3.52l15.53-5.51a1.86,1.86,0,0,1,2.29.91L424,189.33l46.86-16.45a1.87,1.87,0,0,1,1.25,3.52Z" transform="translate(-21.29 -24.85)"/><path class="cls-8" d="M437.73,208a8.25,8.25,0,1,1,5-10.53A8.24,8.24,0,0,1,437.73,208Zm-4.27-12a4.51,4.51,0,1,0,5.77,2.75A4.51,4.51,0,0,0,433.46,195.93Z" transform="translate(-21.29 -24.85)"/><path class="cls-8" d="M471.1,196.12a8.26,8.26,0,1,1,5-10.54A8.26,8.26,0,0,1,471.1,196.12Zm-4.27-12a4.52,4.52,0,1,0,5.77,2.75A4.51,4.51,0,0,0,466.83,184.08Z" transform="translate(-21.29 -24.85)"/><path class="cls-8" d="M434.43,176.28a1.87,1.87,0,0,1-2.35-1l-13.83-32.41a1.87,1.87,0,0,1,1-2.45,1.8,1.8,0,0,1,2.45,1l13.83,32.41a1.87,1.87,0,0,1-1,2.45Z" transform="translate(-21.29 -24.85)"/><path class="cls-8" d="M453,169.69l-.1,0a1.87,1.87,0,0,1-2.32-1.26l-9.91-33.8a1.79,1.79,0,0,1,1.26-2.32,1.87,1.87,0,0,1,2.32,1.27l9.92,33.8A1.87,1.87,0,0,1,453,169.69Z" transform="translate(-21.29 -24.85)"/><path class="cls-8" d="M410,166.31a1.87,1.87,0,0,1-1.26-3.52l56.5-20.68h0a1.87,1.87,0,0,1,1.27,3.51L410,166.3Z" transform="translate(-21.29 -24.85)"/></g><g id="Window"><rect class="cls-8" x="459.25" y="78.82" width="147.28" height="181.97" rx="7.38"/><path class="cls-19" d="M465.41,78.82h135A6.16,6.16,0,0,1,606.53,85v15.17a0,0,0,0,1,0,0H459.25a0,0,0,0,1,0,0V85A6.16,6.16,0,0,1,465.41,78.82Z"/><path class="cls-10" d="M621.78,285.64l.42,0a5.6,5.6,0,0,0,1.22-.23,6,6,0,0,0,3.67-3,6.77,6.77,0,0,0,.56-1.59,9.62,9.62,0,0,0,.11-1.89c0-1.33,0-2.79,0-4.37,0-3.15,0-6.8,0-10.89,0-16.41-.05-40.14-.08-69.45,0-14.66,0-30.72,0-48q0-12.93,0-26.72,0-3.44,0-6.93c0-1.16,0-2.36,0-3.48a5.85,5.85,0,0,0-1.3-3.08,6,6,0,0,0-2.81-1.86,12.51,12.51,0,0,0-3.49-.24h-7.22l-126.12,0a5.92,5.92,0,0,0-3.7,1.33,5.82,5.82,0,0,0-2,3.37,10.38,10.38,0,0,0-.11,2v54.87c0,21.09,0,41.44,0,60.83,0,9.69,0,19.15,0,28.33v13.57c0,2.23,0,4.44,0,6.63v3.27a10.59,10.59,0,0,0,.26,3.16,5.87,5.87,0,0,0,4.35,4,16.82,16.82,0,0,0,3.11.13h15.38l23,0,69.44.08,18.88,0,4.91,0c1.11,0,1.68,0,1.68,0l-1.68,0-4.91,0-18.88,0-69.44.09H488.48a17.35,17.35,0,0,1-3.2-.13,6.33,6.33,0,0,1-4.67-4.27,10.51,10.51,0,0,1-.28-3.29c0-1.08,0-2.18,0-3.27v-6.63q0-6.67,0-13.57c0-9.18,0-18.64,0-28.33,0-19.39,0-39.74,0-60.83q0-15.83,0-32.18V110.66a11.05,11.05,0,0,1,.12-2.13,6.32,6.32,0,0,1,2.18-3.67,6.42,6.42,0,0,1,4-1.45l126.12,0h9a6.63,6.63,0,0,1,1.83.26,6.42,6.42,0,0,1,3,2A6.33,6.33,0,0,1,628,109c.08,1.22,0,2.35,0,3.53q0,3.5,0,6.93,0,13.78,0,26.72c0,17.24,0,33.3,0,48,0,29.31-.07,53-.08,69.45,0,4.09,0,7.74,0,10.89,0,1.58,0,3,0,4.37a9.89,9.89,0,0,1-.13,1.91,6.21,6.21,0,0,1-.58,1.62,6.07,6.07,0,0,1-3.75,3,5.16,5.16,0,0,1-1.23.2Z" transform="translate(-21.29 -24.85)"/><path class="cls-8" d="M495.54,114.34a3.42,3.42,0,1,1-3.42-3.42A3.42,3.42,0,0,1,495.54,114.34Z" transform="translate(-21.29 -24.85)"/><path class="cls-8" d="M505.38,114.34a3.42,3.42,0,1,1-3.41-3.42A3.41,3.41,0,0,1,505.38,114.34Z" transform="translate(-21.29 -24.85)"/><path class="cls-8" d="M515.23,114.34a3.42,3.42,0,1,1-3.42-3.42A3.42,3.42,0,0,1,515.23,114.34Z" transform="translate(-21.29 -24.85)"/><rect class="cls-11" x="515.26" y="114.08" width="39.71" height="39.1" rx="3.84"/><polyline class="cls-20" points="527.38 127.77 543.3 127.77 541.74 136.48 528.62 136.48"/><polyline class="cls-20" points="522.97 125.45 526.98 125.45 528.81 139.49 541.3 139.53"/><path class="cls-20" d="M553.69,167.23a1.56,1.56,0,1,1-1.55-1.53A1.54,1.54,0,0,1,553.69,167.23Z" transform="translate(-21.29 -24.85)"/><path class="cls-20" d="M562.32,167.23a1.56,1.56,0,1,1-1.56-1.53A1.55,1.55,0,0,1,562.32,167.23Z" transform="translate(-21.29 -24.85)"/><line class="cls-20" x1="532.14" y1="128.05" x2="532.67" y2="136.48"/><line class="cls-20" x1="537.94" y1="128.05" x2="537.46" y2="136.48"/><line class="cls-20" x1="527.87" y1="132.27" x2="542.52" y2="132.13"/><ellipse class="cls-8" cx="544.12" cy="126.35" rx="4.29" ry="4.22"/><rect class="cls-3" x="482.26" y="165.03" width="45.27" height="6.05"/><rect class="cls-3" x="565.9" y="165.03" width="17.62" height="6.05"/><rect class="cls-3" x="482.26" y="177.87" width="58.51" height="6.05"/><rect class="cls-3" x="565.9" y="177.87" width="17.62" height="6.05"/><rect class="cls-3" x="482.26" y="190.71" width="27.4" height="6.05"/><rect class="cls-3" x="565.9" y="190.71" width="17.62" height="6.05"/><rect class="cls-12" x="565.9" y="202.93" width="17.62" height="6.05"/><rect class="cls-11" x="505.31" y="224.3" width="51.73" height="20.02" rx="9.5"/><text class="cls-21" transform="translate(543.13 127.46)">3</text></g><g id="Shopping_Basket" data-name="Shopping Basket"><path class="cls-11" d="M332.26,399.45h-68.6c-1.77,0-3,1-2.64,2.19q4.05,15.78,8.09,31.56a3.17,3.17,0,0,0,3,2.19h51.76a3.17,3.17,0,0,0,3-2.19q4-15.78,8.09-31.56C335.21,400.43,334,399.45,332.26,399.45Zm-58.65,30.72c0,.17-.09.31-.21.31H272c-.12,0-.22-.14-.22-.31V419.78h1.8Zm0-12.26h-1.8v-10.4c0-.16.1-.3.22-.3h1.37c.12,0,.21.14.21.3ZM277,430.17c0,.17-.09.31-.22.31H275.4c-.12,0-.22-.14-.22-.31V419.78H277Zm0-12.26h-1.8v-10.4c0-.16.1-.3.22-.3h1.36c.13,0,.22.14.22.3Zm3.37,12.26c0,.17-.1.31-.22.31h-1.37c-.12,0-.21-.14-.21-.31V419.78h1.8Zm0-12.26h-1.8v-10.4c0-.16.09-.3.21-.3h1.37c.12,0,.22.14.22.3Zm6.73,12.26c0,.17-.1.31-.21.31h-1.38c-.11,0-.21-.14-.21-.31V419.78h1.8Zm0-12.26h-1.8v-10.4c0-.16.1-.3.21-.3h1.38c.11,0,.21.14.21.3Zm3.37,12.26c0,.17-.1.31-.22.31h-1.37c-.12,0-.21-.14-.21-.31V419.78h1.8Zm0-12.26h-1.8v-10.4c0-.16.09-.3.21-.3h1.37c.12,0,.22.14.22.3Zm3.36,12.26c0,.17-.1.31-.21.31h-1.37c-.12,0-.22-.14-.22-.31V419.78h1.8Zm0-12.26H292v-10.4c0-.16.1-.3.22-.3h1.37c.11,0,.21.14.21.3Zm3.37,12.26c0,.17-.1.31-.22.31h-1.37c-.12,0-.21-.14-.21-.31V419.78h1.8Zm0-12.26h-1.8v-10.4c0-.16.09-.3.21-.3H297c.12,0,.22.14.22.3Zm3.36,12.26c0,.17-.09.31-.21.31H299c-.12,0-.22-.14-.22-.31V419.78h1.8Zm0-12.26h-1.8v-10.4c0-.16.1-.3.22-.3h1.37c.12,0,.21.14.21.3Zm3.37,12.26c0,.17-.1.31-.22.31h-1.37c-.11,0-.21-.14-.21-.31V419.78h1.8Zm0-12.26h-1.8v-10.4c0-.16.1-.3.21-.3h1.37c.12,0,.22.14.22.3Zm3.37,12.26c0,.17-.1.31-.22.31h-1.37c-.12,0-.21-.14-.21-.31V419.78h1.8Zm0-12.26h-1.8v-10.4c0-.16.09-.3.21-.3h1.37c.12,0,.22.14.22.3Zm3.36,12.26c0,.17-.09.31-.21.31h-1.37c-.12,0-.22-.14-.22-.31V419.78h1.8Zm0-12.26h-1.8v-10.4c0-.16.1-.3.22-.3h1.37c.12,0,.21.14.21.3Zm6.74,12.26c0,.17-.1.31-.22.31h-1.37c-.12,0-.21-.14-.21-.31V419.78h1.8Zm0-12.26h-1.8v-10.4c0-.16.09-.3.21-.3h1.37c.12,0,.22.14.22.3Zm3.36,12.26c0,.17-.09.31-.21.31h-1.37c-.12,0-.22-.14-.22-.31V419.78h1.8Zm0-12.26h-1.8v-10.4c0-.16.1-.3.22-.3h1.37c.12,0,.21.14.21.3Zm3.37,12.26c0,.17-.1.31-.22.31h-1.37c-.12,0-.21-.14-.21-.31V419.78h1.8Zm0-12.26h-1.8v-10.4c0-.16.09-.3.21-.3h1.37c.12,0,.22.14.22.3Z" transform="translate(-21.29 -24.85)"/><path class="cls-11" d="M339.16,401.29a.94.94,0,0,1-.9,1h-80.6a1,1,0,0,1-.9-1v-3.58a1,1,0,0,1,.9-1h80.6a.94.94,0,0,1,.9,1Z" transform="translate(-21.29 -24.85)"/><path class="cls-10" d="M337.53,402.26c0,.13-17.58.23-39.26.23s-39.26-.1-39.26-.23,17.57-.23,39.26-.23S337.53,402.13,337.53,402.26Z" transform="translate(-21.29 -24.85)"/><g class="cls-13"><path d="M262.75,402.26a196.28,196.28,0,0,0,33.2,3c12.39.12,26.11-.51,38.19-3Z" transform="translate(-21.29 -24.85)"/></g><path class="cls-10" d="M299.29,401.09h0A2,2,0,0,1,296.6,400l-12.22-28.83a2.07,2.07,0,0,1,1.1-2.7h0a2.06,2.06,0,0,1,2.69,1.09l12.21,28.84A2,2,0,0,1,299.29,401.09Z" transform="translate(-21.29 -24.85)"/><circle class="cls-12" cx="277.15" cy="374.32" r="1.45"/></g><g id="Bags"><path class="cls-12" d="M210.78,397.57c-.05,0-.09-.58-.29-1.62a20.76,20.76,0,0,0-1.3-4.28,16.29,16.29,0,0,0-3.7-5.42A10.31,10.31,0,0,0,191,386.2a16.24,16.24,0,0,0-3.72,5.41,20.23,20.23,0,0,0-1.31,4.27c-.21,1-.25,1.63-.29,1.62a1.57,1.57,0,0,1,0-.43,12,12,0,0,1,.14-1.22,18.17,18.17,0,0,1,1.2-4.35,16.34,16.34,0,0,1,3.73-5.57,10.6,10.6,0,0,1,15,.05,16.24,16.24,0,0,1,3.71,5.58,18.72,18.72,0,0,1,1.19,4.36,11.36,11.36,0,0,1,.13,1.22A2,2,0,0,1,210.78,397.57Z" transform="translate(-21.29 -24.85)"/><path class="cls-12" d="M215.11,397.57s-.08-.58-.28-1.62a20.76,20.76,0,0,0-1.3-4.28,16.29,16.29,0,0,0-3.7-5.42,10.31,10.31,0,0,0-14.51-.05,16.24,16.24,0,0,0-3.72,5.41,19.65,19.65,0,0,0-1.31,4.27c-.21,1-.25,1.63-.3,1.62a2,2,0,0,1,0-.43,11.36,11.36,0,0,1,.13-1.22,18.77,18.77,0,0,1,1.21-4.35,16.05,16.05,0,0,1,3.73-5.57,10.6,10.6,0,0,1,15,.05,16.24,16.24,0,0,1,3.71,5.58,18.72,18.72,0,0,1,1.19,4.36c.08.53.11.94.13,1.22A1.57,1.57,0,0,1,215.11,397.57Z" transform="translate(-21.29 -24.85)"/><polygon class="cls-2" points="151.95 371.17 200.94 370.8 202 437.57 147.04 437.57 151.95 371.17"/><polygon class="cls-3" points="200.94 370.8 207.09 370.8 212.38 437.57 202 437.57 200.94 370.8"/><rect class="cls-8" x="158.49" y="397.09" width="32.07" height="5.37"/><path class="cls-10" d="M188.44,413.25a29.67,29.67,0,0,0-1.46-6.08,17,17,0,0,0-3.34-5.59,8.48,8.48,0,0,0-13.07-.05,17,17,0,0,0-3.36,5.57,29.89,29.89,0,0,0-1.48,6.08,2.44,2.44,0,0,1,0-.44c0-.29,0-.72.11-1.27a21.45,21.45,0,0,1,1.09-4.51,17,17,0,0,1,3.37-5.76,8.77,8.77,0,0,1,13.61.05,17.1,17.1,0,0,1,3.36,5.78,21.82,21.82,0,0,1,1.06,4.51c.07.55.1,1,.11,1.27A1.23,1.23,0,0,1,188.44,413.25Z" transform="translate(-21.29 -24.85)"/><path class="cls-10" d="M192.36,413.25a30,30,0,0,0-1.45-6.08,17,17,0,0,0-3.35-5.59,8.48,8.48,0,0,0-13.07-.05,17,17,0,0,0-3.36,5.57,29.89,29.89,0,0,0-1.48,6.08,2.44,2.44,0,0,1,0-.44c0-.29,0-.72.11-1.27a21.45,21.45,0,0,1,1.09-4.51,17,17,0,0,1,3.37-5.76,8.79,8.79,0,0,1,13.62.05,17.23,17.23,0,0,1,3.35,5.78,21.18,21.18,0,0,1,1.06,4.51c.07.55.1,1,.11,1.27A1.23,1.23,0,0,1,192.36,413.25Z" transform="translate(-21.29 -24.85)"/><polygon class="cls-9" points="131.26 385.76 175.54 385.45 176.51 440.4 126.81 440.4 131.26 385.76"/><polygon class="cls-12" points="175.54 385.45 181.1 385.45 185.89 440.4 176.51 440.4 175.54 385.45"/><g class="cls-13"><polygon class="cls-9" points="175.54 385.45 179.13 385.45 182.21 440.4 176.16 440.4 175.54 385.45"/></g><rect class="cls-8" x="139" y="404.12" width="28.99" height="5.55"/><path class="cls-10" d="M511.84,427.94a21.72,21.72,0,0,0-1-4.34,12.33,12.33,0,0,0-2.39-4,6.06,6.06,0,0,0-9.33,0,12.23,12.23,0,0,0-2.4,4,21.41,21.41,0,0,0-1.05,4.34,1.3,1.3,0,0,1,0-.32,7.86,7.86,0,0,1,.08-.9,15.2,15.2,0,0,1,.77-3.22,12.09,12.09,0,0,1,2.41-4.11,6.28,6.28,0,0,1,9.72,0A12.35,12.35,0,0,1,511,423.5a15.07,15.07,0,0,1,.76,3.22c.05.39.07.7.08.9A1.3,1.3,0,0,1,511.84,427.94Z" transform="translate(-21.29 -24.85)"/><path class="cls-10" d="M514.63,427.94a20.1,20.1,0,0,0-1-4.34,12.11,12.11,0,0,0-2.38-4,6.06,6.06,0,0,0-9.33,0,12.05,12.05,0,0,0-2.4,4,21.41,21.41,0,0,0-1.05,4.34,1.3,1.3,0,0,1,0-.32,7.86,7.86,0,0,1,.08-.9,14.6,14.6,0,0,1,.77-3.22,11.93,11.93,0,0,1,2.41-4.11,6.27,6.27,0,0,1,9.71,0,12.18,12.18,0,0,1,2.39,4.13,14.6,14.6,0,0,1,.77,3.22c.05.39.07.7.08.9A1.57,1.57,0,0,1,514.63,427.94Z" transform="translate(-21.29 -24.85)"/><polygon class="cls-9" points="464.93 401.2 496.53 400.99 497.22 440.2 461.76 440.2 464.93 401.2"/><polygon class="cls-12" points="496.53 400.99 500.5 400.99 503.92 440.2 497.22 440.2 496.53 400.99"/><g class="cls-13"><polygon points="496.53 400.99 500.5 400.99 503.92 440.2 497.22 440.2 496.53 400.99"/></g><rect class="cls-8" x="470.45" y="414.31" width="20.69" height="3.96"/></g><g id="Speech_Bubble_2" data-name="Speech Bubble 2"><path class="cls-8" d="M390.81,323.37l-6.94-.41a22.35,22.35,0,1,1,4.79-6.42h0Z" transform="translate(-21.29 -24.85)"/><path class="cls-10" d="M390.81,323.37l-.13-.43-.39-1.31c-.36-1.16-.88-2.88-1.57-5.11l0-.1-.06.07h0l.09.07a22.33,22.33,0,0,0,2.36-10.73,21,21,0,0,0-.38-3.45,23.87,23.87,0,0,0-1-3.58,22.27,22.27,0,0,0-11.23-12.38,22.2,22.2,0,0,0-19.37-.1,21.89,21.89,0,0,0-8.3,6.76L350,294.2l-.71,1.18-.35.59-.3.62-.58,1.23c-.18.42-.32.85-.48,1.27a10.07,10.07,0,0,0-.42,1.28,18.31,18.31,0,0,0-.58,2.62A22.23,22.23,0,0,0,352,321.66a22.56,22.56,0,0,0,7.23,5.3,22.3,22.3,0,0,0,7.88,2,24.32,24.32,0,0,0,3.73,0,31.7,31.7,0,0,0,3.43-.62,22.33,22.33,0,0,0,9.6-5.29h0l5.18.27,1.32.06.44,0-.46,0-1.34-.09-5.14-.33h0a22.24,22.24,0,0,1-9.57,5.21,28.78,28.78,0,0,1-3.39.6,25.29,25.29,0,0,1-3.7,0,22.07,22.07,0,0,1-7.8-2A22.09,22.09,0,0,1,346.79,303a20.85,20.85,0,0,1,.57-2.58,11.11,11.11,0,0,1,.42-1.27c.16-.41.3-.84.47-1.25l.58-1.22.3-.61.35-.58c.23-.39.46-.78.7-1.17s.53-.73.8-1.1a21.76,21.76,0,0,1,8.21-6.68,22,22,0,0,1,9.88-2.15,22.39,22.39,0,0,1,9.27,2.23,22.12,22.12,0,0,1,11.14,12.23,23.2,23.2,0,0,1,1,3.55,21.91,21.91,0,0,1,.4,3.42,22.48,22.48,0,0,1-2.29,10.67l-.19.37.28-.31h0l-.1,0,1.62,5.06.43,1.31C390.75,323.22,390.81,323.37,390.81,323.37Z" transform="translate(-21.29 -24.85)"/><path class="cls-11" d="M376.12,309.42H363.9a.43.43,0,0,1,0-.85h11.87l1.31-7.39H362.75a.43.43,0,0,1,0-.85h14.83a.41.41,0,0,1,.33.15.44.44,0,0,1,.09.35l-1.46,8.24A.42.42,0,0,1,376.12,309.42Z" transform="translate(-21.29 -24.85)"/><path class="cls-11" d="M375.72,312.31h0l-11.64,0a.42.42,0,0,1-.42-.37L362,299h-3.37a.43.43,0,0,1,0-.85h3.74a.41.41,0,0,1,.42.37l1.66,12.92,11.27,0a.43.43,0,0,1,0,.85Z" transform="translate(-21.29 -24.85)"/><path class="cls-11" d="M366,316.45a1.88,1.88,0,1,1,1.87-1.87A1.88,1.88,0,0,1,366,316.45Zm0-2.9a1,1,0,1,0,1,1A1,1,0,0,0,366,313.55Z" transform="translate(-21.29 -24.85)"/><path class="cls-11" d="M374,316.45a1.88,1.88,0,1,1,1.88-1.87A1.87,1.87,0,0,1,374,316.45Zm0-2.9a1,1,0,1,0,1,1A1,1,0,0,0,374,313.55Z" transform="translate(-21.29 -24.85)"/><path class="cls-11" d="M367.67,309.42a.43.43,0,0,1-.42-.4l-.5-8a.43.43,0,0,1,.4-.45.4.4,0,0,1,.45.39l.5,8a.43.43,0,0,1-.4.45Z" transform="translate(-21.29 -24.85)"/><path class="cls-11" d="M372.14,309.42h0a.43.43,0,0,1-.4-.45l.45-8a.4.4,0,0,1,.44-.39.41.41,0,0,1,.4.44l-.44,8A.43.43,0,0,1,372.14,309.42Z" transform="translate(-21.29 -24.85)"/><path class="cls-11" d="M363.2,305.43a.43.43,0,0,1,0-.85l13.65-.13h0a.43.43,0,0,1,0,.85l-13.65.13Z" transform="translate(-21.29 -24.85)"/></g><g id="Speech_Bubble_1" data-name="Speech Bubble 1"><path class="cls-8" d="M84.12,140.58l-6.94-.4A22.39,22.39,0,1,1,82,133.76h0Z" transform="translate(-21.29 -24.85)"/><path class="cls-10" d="M84.12,140.58l-.13-.43-.39-1.3c-.36-1.17-.88-2.89-1.56-5.12l0-.1-.07.08h0l.1.06a22.41,22.41,0,0,0,2.36-10.72,21,21,0,0,0-.39-3.45A24.69,24.69,0,0,0,83,116a22.17,22.17,0,0,0-4.13-7,22.56,22.56,0,0,0-16.47-7.67,22.48,22.48,0,0,0-18.31,8.92c-.27.37-.55.74-.81,1.12s-.48.78-.71,1.18l-.36.59-.29.61c-.2.41-.39.83-.59,1.24s-.32.84-.48,1.27a11.27,11.27,0,0,0-.42,1.28,21.35,21.35,0,0,0-.58,2.61,22.16,22.16,0,0,0,5.52,18.67,22.56,22.56,0,0,0,7.23,5.3,22.26,22.26,0,0,0,7.88,2,24.31,24.31,0,0,0,3.73-.05,27,27,0,0,0,3.42-.62,22.17,22.17,0,0,0,9.6-5.29h0l5.18.27,1.32.07h.44l-.46,0-1.33-.09-5.14-.34h0l0,0a22.19,22.19,0,0,1-9.56,5.2,29,29,0,0,1-3.4.6,23.94,23.94,0,0,1-3.7,0,22.3,22.3,0,0,1-19.7-15.59,22.6,22.6,0,0,1-.68-10.15,21.3,21.3,0,0,1,.58-2.58,9.8,9.8,0,0,1,.42-1.26c.15-.42.29-.85.47-1.26s.38-.81.58-1.22l.29-.61.35-.58.7-1.16c.26-.38.54-.74.81-1.11a21.73,21.73,0,0,1,8.2-6.68,22.09,22.09,0,0,1,19.15.08A22.06,22.06,0,0,1,82.8,116.1a26,26,0,0,1,1,3.54,23.13,23.13,0,0,1,.39,3.42,22.33,22.33,0,0,1-2.29,10.67l-.18.38.28-.32h0l-.1,0c.7,2.21,1.25,3.91,1.62,5.06.18.58.32,1,.42,1.31Z" transform="translate(-21.29 -24.85)"/><path class="cls-11" d="M70.43,120.74A5.41,5.41,0,0,0,68.87,118a5.08,5.08,0,0,0-2.77-1.45,4.13,4.13,0,0,0-4.39,2.42,4.12,4.12,0,0,0-1.32-1.24,4.22,4.22,0,0,0-3.26-.41,5.12,5.12,0,0,0-2.55,1.82,5.33,5.33,0,0,0-1.17,3A6.47,6.47,0,0,0,54.49,126a9.19,9.19,0,0,0,3.35,2.73c2.14,1.1,5,2.47,5,2.47S65,129.32,67,127.94a9.23,9.23,0,0,0,3-3.17A6.42,6.42,0,0,0,70.43,120.74Z" transform="translate(-21.29 -24.85)"/></g><g id="Character_3" data-name="Character 3"><polygon class="cls-3" points="671.11 242.8 717.91 286.59 708.11 297.22 666.31 248.32 671.11 242.8"/><polygon class="cls-3" points="708.11 297.22 676.5 301.16 651.56 254.76 666.31 248.32 708.11 297.22"/><path class="cls-10" d="M729.4,322.08a17,17,0,0,1-.62-2.89c-.32-1.79-.73-4.29-1.16-7.08l0-.29h.29l.6,0c3-.16,5.64-.28,7.59-.34a19.21,19.21,0,0,1,3.15,0,18.57,18.57,0,0,1-3.13.36c-1.94.15-4.62.33-7.58.49l-.61,0,.25-.3c.42,2.79.77,5.3,1,7.11A16.32,16.32,0,0,1,729.4,322.08Z" transform="translate(-21.29 -24.85)"/><path class="cls-10" d="M690.07,270.31c.11-.09,8.66,9.18,19.1,20.7s18.82,21,18.71,21.06-8.66-9.17-19.1-20.71S690,270.41,690.07,270.31Z" transform="translate(-21.29 -24.85)"/><g class="cls-13"><polygon points="708.11 297.22 676.5 301.16 651.56 254.76 666.31 248.32 708.11 297.22"/></g><polygon class="cls-12" points="706.15 304.47 691.66 316.81 666.15 254.15 667.39 253.39 706.15 304.47"/><polygon class="cls-12" points="691.66 316.81 668.58 311.12 651.11 257.49 666.15 254.15 691.66 316.81"/><g class="cls-13"><polygon points="691.66 316.81 668.58 311.12 651.11 257.49 666.15 254.15 691.66 316.81"/></g><path class="cls-10" d="M713,341.66a3.32,3.32,0,0,1,.11-1c.11-.65.29-1.58.51-2.73.45-2.3,1.11-5.47,1.87-9,.12-.54.23-1.07.34-1.57l.06-.24.24,0c3.15.56,5.94,1.08,7.94,1.47a21.13,21.13,0,0,1,3.19.74A22.83,22.83,0,0,1,724,329c-2-.3-4.81-.76-8-1.3l.3-.2c-.11.5-.22,1-.34,1.57-.76,3.49-1.48,6.65-2,8.93-.27,1.14-.5,2.06-.67,2.69A4.34,4.34,0,0,1,713,341.66Z" transform="translate(-21.29 -24.85)"/><path class="cls-10" d="M688,278.75c.12-.07,6.5,10.77,14.23,24.22s13.91,24.4,13.79,24.48-6.5-10.77-14.24-24.22S687.9,278.82,688,278.75Z" transform="translate(-21.29 -24.85)"/><polygon class="cls-11" points="661.25 252.74 681.44 299.51 664.91 305.25 659.94 253.02 661.25 252.74"/><polygon class="cls-14" points="664.91 305.25 649.57 301.78 647.46 254.67 659.94 253.02 664.91 305.25"/><g class="cls-13"><polygon class="cls-11" points="664.91 305.25 649.57 301.78 647.46 254.67 659.94 253.02 664.91 305.25"/></g><path class="cls-10" d="M686.2,330.1a17.57,17.57,0,0,1,1.85-2.5c1.19-1.5,2.87-3.55,4.75-5.8l.61-.73.11-.14.17.06c2.56.88,4.84,1.7,6.46,2.3a16.91,16.91,0,0,1,2.59,1.07,15,15,0,0,1-2.7-.73c-1.66-.52-3.95-1.28-6.51-2.15l.28-.08-.61.73c-1.88,2.25-3.6,4.27-4.87,5.71A18.85,18.85,0,0,1,686.2,330.1Z" transform="translate(-21.29 -24.85)"/><path class="cls-10" d="M681.9,277.73c.14,0,2.88,9.67,6.11,21.68s5.74,21.79,5.6,21.83-2.87-9.68-6.11-21.69S681.77,277.76,681.9,277.73Z" transform="translate(-21.29 -24.85)"/><polygon class="cls-10" points="671.11 242.8 654.17 250.58 655.88 252.88 666.31 248.32 671.11 242.8"/><polygon class="cls-10" points="667.39 253.39 662.03 254.53 662.27 255.01 666.15 254.15 667.39 253.39"/><path class="cls-11" d="M683,211.41s5.68,7.33,6.29,12c.51,3.84,3.28,24.65,4.7,34.45a14.47,14.47,0,0,1-3,11.26c-2.45,3-6.15,5-11.15,1.54-3.44-2.41-12.24-12.25-12.24-12.25l14.47-45.34" transform="translate(-21.29 -24.85)"/><path class="cls-10" d="M667.36,148.62a11.1,11.1,0,0,0-8.52.88,6.57,6.57,0,0,0-11.34,1.74,5.56,5.56,0,0,0-5.58,9.47,7.15,7.15,0,0,0-3,10.86c-2.13,1-2.5,3.94-2.19,6.29s1,4.88-.06,7c-.81,1.65-2.5,2.67-3.65,4.1s-1.55,3.89,0,4.86a5,5,0,1,0,1.79,9.76,6.09,6.09,0,0,0,.65,5.84,9.76,9.76,0,0,0,4.89,3.56,14.58,14.58,0,0,0,15.94-4.49l17.58-54.35A11.08,11.08,0,0,0,667.36,148.62Z" transform="translate(-21.29 -24.85)"/><path class="cls-22" d="M675.72,163.68l.23-2.93-17.43-4.42c-5.4-.9-11.61,4.2-12.28,9.63-.75,6-1.42,13.44-1,18,.89,9.18,7.79,10.76,7.79,10.76l-.5,9,20.1,1.46Z" transform="translate(-21.29 -24.85)"/><path class="cls-10" d="M648.37,174.62a1.17,1.17,0,0,0,1.06,1.25,1.12,1.12,0,0,0,1.26-1,1.17,1.17,0,0,0-1.05-1.25A1.13,1.13,0,0,0,648.37,174.62Z" transform="translate(-21.29 -24.85)"/><path class="cls-10" d="M647.93,169.94c.14.16,1.06-.44,2.31-.36s2.14.76,2.29.62-.06-.35-.45-.67a3.18,3.18,0,0,0-1.81-.68,3.09,3.09,0,0,0-1.85.48C648,169.6,647.86,169.87,647.93,169.94Z" transform="translate(-21.29 -24.85)"/><path class="cls-10" d="M659.38,175.3a1.17,1.17,0,0,0,1,1.25,1.13,1.13,0,0,0,1.27-1,1.18,1.18,0,0,0-1.06-1.25A1.12,1.12,0,0,0,659.38,175.3Z" transform="translate(-21.29 -24.85)"/><path class="cls-10" d="M660.25,170.92c.14.16,1.06-.44,2.32-.36s2.13.76,2.28.61-.06-.34-.44-.66a3.17,3.17,0,0,0-1.82-.68,3,3,0,0,0-1.85.47C660.34,170.58,660.19,170.84,660.25,170.92Z" transform="translate(-21.29 -24.85)"/><path class="cls-10" d="M655.14,180a8.5,8.5,0,0,0-2-.49c-.32-.05-.62-.13-.66-.36a1.69,1.69,0,0,1,.27-.93c.35-.76.72-1.55,1.1-2.39a42,42,0,0,0,2.51-6.25,42.16,42.16,0,0,0-3,6q-.55,1.25-1.05,2.4a1.82,1.82,0,0,0-.25,1.24.84.84,0,0,0,.5.51,2.61,2.61,0,0,0,.54.1A8.08,8.08,0,0,0,655.14,180Z" transform="translate(-21.29 -24.85)"/><path class="cls-23" d="M653.07,194.75a24.11,24.11,0,0,0,12.68-2.52s-3.45,6.19-12.81,4.79Z" transform="translate(-21.29 -24.85)"/><path class="cls-10" d="M660.54,166.59c.13.34,1.38.17,2.86.35s2.67.58,2.86.28c.09-.15-.12-.47-.6-.8a4.94,4.94,0,0,0-4.36-.48C660.76,166.15,660.49,166.42,660.54,166.59Z" transform="translate(-21.29 -24.85)"/><path class="cls-10" d="M648.23,166.83c.21.3,1.09.07,2.13.12s1.91.33,2.13,0c.1-.13,0-.43-.39-.73a3,3,0,0,0-1.69-.58,2.94,2.94,0,0,0-1.73.45C648.29,166.4,648.15,166.69,648.23,166.83Z" transform="translate(-21.29 -24.85)"/><path class="cls-10" d="M646.28,159.42a15.26,15.26,0,0,1,8.3-5.48l14.72,1.85,1.26,0c.27-.93,1.84-1.41,1.84-1.41,1.38-1.07,6.17-1.12,9.51,2.37,1.21,1.26,2.06,4.43,2.09,6.17,0,.66-.69,1.56-.14,1.93a18.65,18.65,0,0,0,2,.14c3.74.82,6.08,4.14,5.4,9.1a2.78,2.78,0,0,0-.08.75,2.09,2.09,0,0,0,.66,1,6.49,6.49,0,0,1,1,7.23,8,8,0,0,0-1,2.17c-.23,1.42.81,2.68,1.61,3.87,2.4,3.57,2.92,8.75.1,12a6.8,6.8,0,0,0-1.83,2.5,6.52,6.52,0,0,0-.08,1.53c0,2.59-1.35,5.49-3.88,6-1.41.3-3.11-.1-4.11.94a6.07,6.07,0,0,0-.9,1.64,5.25,5.25,0,0,1-6.06,2.6c-2.28-.7-3-10-2.71-12.34-2.76-1-4.81-1.18-4.68-4.12,0,0,.42-5.07-.4-7.53s.83-7.72,1.77-10.27-.18-8.48-.43-10.84a8.11,8.11,0,0,1,.19-2h0c.1-.58.24-1.22.4-1.91s.59-4.09.58-4.69c0-2.24-2.81-1-4.92-.33a5.37,5.37,0,0,1-1.59.28,5.64,5.64,0,0,1-4.55-2.15,8.1,8.1,0,0,1-8,2.19,21.86,21.86,0,0,1-3.81,4.43,7.45,7.45,0,0,1-5.39,1.85A15.24,15.24,0,0,1,646.28,159.42Z" transform="translate(-21.29 -24.85)"/><path class="cls-23" d="M656.05,183a2.23,2.23,0,0,1,1.94-.92,2,2,0,0,1,1.44.68,1.27,1.27,0,0,1,.17,1.46,1.47,1.47,0,0,1-1.59.49,4.69,4.69,0,0,1-1.62-.86,1.34,1.34,0,0,1-.37-.34.41.41,0,0,1,0-.46" transform="translate(-21.29 -24.85)"/><path class="cls-10" d="M659,180.72c-.2,0-.13,1.34-1.23,2.34s-2.52.93-2.53,1.12.33.25.94.23a3.31,3.31,0,0,0,2.11-.86,2.88,2.88,0,0,0,.95-2C659.3,181,659.13,180.71,659,180.72Z" transform="translate(-21.29 -24.85)"/><path class="cls-12" d="M631.1,420.28l1.66,17.26s-18.81,7-19,10.5l35.56.1,0-2.6-1.49-8.88-2.2-17.24Z" transform="translate(-21.29 -24.85)"/><path class="cls-3" d="M643.47,434.86a1.49,1.49,0,0,1,1,1.69,1.42,1.42,0,0,1-1.67,1,1.57,1.57,0,0,1-1.09-1.8,1.48,1.48,0,0,1,1.86-.88" transform="translate(-21.29 -24.85)"/><path class="cls-10" d="M649.31,448.14l0-2.6-34.11.65s-1.62.71-1.43,1.85Z" transform="translate(-21.29 -24.85)"/><path class="cls-10" d="M632.17,437.35c0,.18.9.26,1.77.83s1.34,1.31,1.51,1.24-.11-1.09-1.18-1.76S632.13,437.19,632.17,437.35Z" transform="translate(-21.29 -24.85)"/><path class="cls-10" d="M628.36,438.94c0,.18.73.48,1.33,1.23s.78,1.54,1,1.53.29-1-.48-1.93S628.36,438.77,628.36,438.94Z" transform="translate(-21.29 -24.85)"/><path class="cls-10" d="M626.2,443.52c.16,0,.41-.85-.05-1.83s-1.29-1.35-1.37-1.21.44.67.81,1.48S626,443.5,626.2,443.52Z" transform="translate(-21.29 -24.85)"/><path class="cls-10" d="M630.91,433.2c.07.17.89-.08,1.89,0s1.79.38,1.88.22-.66-.78-1.84-.84S630.82,433.07,630.91,433.2Z" transform="translate(-21.29 -24.85)"/><path class="cls-12" d="M674.81,420.77l1.52,17s-18.52,6.79-18.74,10.21l34.93.31v-2.56L691.11,437,689.05,420Z" transform="translate(-21.29 -24.85)"/><path class="cls-3" d="M686.86,435.17a1.47,1.47,0,0,1,1,1.67,1.42,1.42,0,0,1-1.65,1,1.54,1.54,0,0,1-1.05-1.78,1.45,1.45,0,0,1,1.82-.86" transform="translate(-21.29 -24.85)"/><path class="cls-10" d="M692.52,448.25v-2.56l-33.52.44s-1.59.69-1.41,1.81Z" transform="translate(-21.29 -24.85)"/><path class="cls-10" d="M675.75,437.55c0,.17.88.26,1.73.82s1.32,1.3,1.48,1.23-.1-1.08-1.15-1.74S675.71,437.39,675.75,437.55Z" transform="translate(-21.29 -24.85)"/><path class="cls-10" d="M672,439.09c0,.16.72.46,1.31,1.21s.76,1.52.93,1.51.29-1-.46-1.9S672,438.92,672,439.09Z" transform="translate(-21.29 -24.85)"/><path class="cls-10" d="M669.85,443.57c.16,0,.4-.84,0-1.8s-1.26-1.34-1.34-1.19.43.66.79,1.45S669.68,443.55,669.85,443.57Z" transform="translate(-21.29 -24.85)"/><path class="cls-10" d="M674.54,433.46c.07.16.87-.07,1.86,0s1.75.38,1.84.23-.64-.77-1.81-.84S674.45,433.33,674.54,433.46Z" transform="translate(-21.29 -24.85)"/><path class="cls-10" d="M630.34,270.2s-8.43,24.41-8.72,42.57-.59,47,3.19,78.9,5.53,44.65,5.53,44.65h19.18a376.33,376.33,0,0,0,1.74-37.81c-.29-17.86-1.68-23.52,0-43.17s4.43-31.45,7.29-37.4c0,0,7.92-9.42,8.5-22.33a63,63,0,0,0-4-24Z" transform="translate(-21.29 -24.85)"/><path class="cls-10" d="M647.38,304.45c.32,1,6,41,10.17,58.65s8.77,22.33,9.58,36.69c.93,16.52,5.47,36.53,5.47,36.53H693s-2.88-30.53-5.75-54.39-7-53.29-6.38-62.12,2.23-19.73,0-32.09-7.07-15.63-7.07-15.63l-17.33-.78Z" transform="translate(-21.29 -24.85)"/><path class="cls-12" d="M666.61,281.55a6.46,6.46,0,0,1,.32.62,12.2,12.2,0,0,1,.69,1.88,24.74,24.74,0,0,1,.67,7.32,47.89,47.89,0,0,1-1.68,10.77,34.08,34.08,0,0,1-2.23,6.06,41.77,41.77,0,0,1-3.69,5.86c-2.77,3.82-4.14,8.18-5.18,12.11a86.77,86.77,0,0,0-1.94,10.68c-.38,3.07-.6,5.57-.77,7.3-.09.83-.15,1.49-.2,2a5,5,0,0,1-.1.69,3.71,3.71,0,0,1,0-.7c0-.49.07-1.15.12-2,.12-1.73.3-4.23.64-7.31a81.32,81.32,0,0,1,1.86-10.74,49.91,49.91,0,0,1,1.93-6.16,30.81,30.81,0,0,1,1.42-3.11c.56-1,1.19-2,1.86-3A41.88,41.88,0,0,0,664,308a34.2,34.2,0,0,0,2.22-6A48.88,48.88,0,0,0,668,291.36a25.89,25.89,0,0,0-.53-7.26,15.77,15.77,0,0,0-.61-1.89A4.38,4.38,0,0,1,666.61,281.55Z" transform="translate(-21.29 -24.85)"/><path class="cls-22" d="M585.4,220.35a58.33,58.33,0,0,0,9.88,4.07l7.13-5.7s-5.1-9.32-6.74-12a14.44,14.44,0,0,1-1.33-2.82c-.55-2-2-1.14-2.28.42a8.72,8.72,0,0,0,.45,2.52,7.33,7.33,0,0,1,.5,3s-.52-.44-1.81-1.31-6.11-4.87-8.11-6.52c-3-2.46-4.48-.93-4.09,0,.48,1.18,7.88,6.36,7.61,7.24,0,0-1.42.81-1.62,1.74a4.72,4.72,0,0,0,0,1.83s-1.33.13-1.69,1a3.38,3.38,0,0,0,.1,2.06s-1.23.11-1.38.79S582.75,218.76,585.4,220.35Z" transform="translate(-21.29 -24.85)"/><path class="cls-11" d="M601.23,216.16c.1.32,15.29,15.87,15.29,15.87s12.67-14.27,16.53-19.52,9.71-11.7,14.74-12.9,12,2,12,2L650.91,220l-11.26,15.49s-12.17,15.28-18,17.64-11.46-1-13.92-3.6-17.09-24.8-17.09-24.8Z" transform="translate(-21.29 -24.85)"/><path class="cls-11" d="M685.83,205.66l-34.94-6s-9.71,17.08-13.34,35-7.76,35.88-7.76,35.88l32.28,4a36.81,36.81,0,0,0,10.11-.14l3.36-.51-2.76-11.39a229.92,229.92,0,0,0,10-29.49C687.09,215.33,685.83,205.66,685.83,205.66Z" transform="translate(-21.29 -24.85)"/><path class="cls-11" d="M650.08,222.73a4.45,4.45,0,0,1-.57.77l-1.64,2c-1.39,1.69-3.26,4.05-5.34,6.66s-4,5-5.44,6.59c-.72.83-1.32,1.48-1.75,1.92a3.83,3.83,0,0,1-.69.65,4,4,0,0,1,.57-.76l1.64-2c1.38-1.69,3.26-4.05,5.34-6.66s4-5,5.44-6.59c.72-.83,1.32-1.48,1.74-1.92A4,4,0,0,1,650.08,222.73Z" transform="translate(-21.29 -24.85)"/><path class="cls-10" d="M672.24,263a9.28,9.28,0,0,1-2.19.63,31.91,31.91,0,0,1-5.46.67,32.87,32.87,0,0,1-5.5-.25,9.4,9.4,0,0,1-2.24-.46,16.63,16.63,0,0,1,2.27.16,45.1,45.1,0,0,0,5.45.13,45.78,45.78,0,0,0,5.43-.55A15.42,15.42,0,0,1,672.24,263Z" transform="translate(-21.29 -24.85)"/><path class="cls-10" d="M616.18,241.29a22.43,22.43,0,0,1-.15-4.43,23.81,23.81,0,0,1,.27-4.42,22.49,22.49,0,0,1,.15,4.43A22.82,22.82,0,0,1,616.18,241.29Z" transform="translate(-21.29 -24.85)"/><g class="cls-13"><path d="M684.71,209.63l-21.84-1.95a3.65,3.65,0,0,0,2.31,4.76A7.07,7.07,0,0,0,670.79,223a6.69,6.69,0,0,1,1.74.22c1.21.43,1.79,1.76,2.52,2.82a6.65,6.65,0,0,0,4.07,2.83,4.83,4.83,0,0,0,4.59-1.53,8,8,0,0,0,1.34-4.78A85.65,85.65,0,0,0,684.71,209.63Z" transform="translate(-21.29 -24.85)"/></g><g class="cls-13"><path d="M636.23,239.78A15.44,15.44,0,0,0,648.58,224C644,229,640.15,235.31,636.23,239.78Z" transform="translate(-21.29 -24.85)"/></g><path class="cls-10" d="M689.72,196.17l-18.63-20.73c.68,5.26-1.3,10.49-3.68,15.23-1.36,2.7-2.87,5.91-1.45,8.58a17.82,17.82,0,0,0-3.08,4.2,6,6,0,0,0-.2,5.05,3.65,3.65,0,0,0,4.34,2,5.68,5.68,0,0,0,7.84,7.05,9,9,0,0,0,3.49,5.43,6,6,0,0,0,6.24.41,4.53,4.53,0,0,0,1.84-5.7c4.1-.9,6.66-5.32,6.78-9.52S691.57,199.94,689.72,196.17Z" transform="translate(-21.29 -24.85)"/><path class="cls-12" d="M651.19,162a1.41,1.41,0,0,1-.31.12,2.63,2.63,0,0,1-1,.06,3.76,3.76,0,0,1-2.82-1.94,3.62,3.62,0,0,1-.39-2.4,4.94,4.94,0,0,1,1.28-2.49,5.28,5.28,0,0,1,2.68-1.53,7.08,7.08,0,0,1,3.3,0,9.23,9.23,0,0,1,1.81.65l-.28.11a7.62,7.62,0,0,1,3.9-4,7.37,7.37,0,0,1,7.26.76,5.41,5.41,0,0,1,.63.52c.13.13.19.21.18.22s-.31-.24-.89-.62a7.78,7.78,0,0,0-2.74-1.07,7,7,0,0,0-4.28.54,7.32,7.32,0,0,0-3.67,3.83l-.09.21-.2-.09a8.65,8.65,0,0,0-1.73-.62,7,7,0,0,0-3.11,0,4.93,4.93,0,0,0-2.49,1.4,4.59,4.59,0,0,0-1.21,2.28,3.3,3.3,0,0,0,.31,2.2A3.62,3.62,0,0,0,650,162,4.86,4.86,0,0,0,651.19,162Z" transform="translate(-21.29 -24.85)"/><path class="cls-12" d="M690.69,175s.16-.39.36-1.1a7.45,7.45,0,0,0,.16-3.11,6.72,6.72,0,0,0-2.18-4,7.09,7.09,0,0,0-5.34-1.74l-.31,0,.09-.3a8.47,8.47,0,0,0,.32-1.91,8.71,8.71,0,0,0-2-6,8.36,8.36,0,0,0-4.49-2.68,8.83,8.83,0,0,0-3.58-.11c-.84.15-1.29.32-1.3.29s.1-.07.31-.16a6.06,6.06,0,0,1,1-.29,8.73,8.73,0,0,1,8.39,2.7,9,9,0,0,1,2.15,6.28,8.21,8.21,0,0,1-.34,2l-.22-.27a7.39,7.39,0,0,1,5.63,1.88,7.1,7.1,0,0,1,1.91,7.45,4.4,4.4,0,0,1-.34.8A.92.92,0,0,1,690.69,175Z" transform="translate(-21.29 -24.85)"/><path class="cls-12" d="M672.9,210.54a1,1,0,0,1-.26-.16,6.12,6.12,0,0,1-.66-.57,7.67,7.67,0,0,1-1.88-7.46,7.84,7.84,0,0,1,3.66-4.49,7.35,7.35,0,0,1,2.29-.83l-.12.34a5.92,5.92,0,0,1-1.42-4.74,5.66,5.66,0,0,1,4.31-4.66,3.45,3.45,0,0,1,.71-.1c.16,0,.25,0,.25,0s-.34.06-.92.23a6,6,0,0,0-2.22,1.26,5.36,5.36,0,0,0-1.77,3.31,5.63,5.63,0,0,0,1.37,4.41l.25.28-.37.07a6.92,6.92,0,0,0-2.15.79,7.54,7.54,0,0,0-3.5,4.24,7.37,7.37,0,0,0,.08,4.53,7.76,7.76,0,0,0,1.55,2.69C672.59,210.25,672.92,210.5,672.9,210.54Z" transform="translate(-21.29 -24.85)"/><path class="cls-10" d="M672.59,164.91l-.58-2.63a19.19,19.19,0,0,0-1.87,12.34c.36,1.94,1,4,.16,5.8-.57,1.22-1.74,2.05-2.42,3.22-.85,1.47-.22,5.36-.44,6.12-.5,1.75-2.18,2.86-2.58,5s.11,4.65,2,5.66c3.56-5.87,7.2-12,8-18.79C675.59,176,674.31,170.3,672.59,164.91Z" transform="translate(-21.29 -24.85)"/><path class="cls-12" d="M683.39,179a.94.94,0,0,1-.31,0,4.7,4.7,0,0,1-.86-.09,5.91,5.91,0,0,1-2.92-1.31,4.43,4.43,0,0,1-1.27-1.85,3.47,3.47,0,0,1,0-2.59,3.16,3.16,0,0,1,2.2-1.83,2.34,2.34,0,0,1,1.57.22,1.47,1.47,0,0,1,.76,1.48,1.2,1.2,0,0,1-.48.77,1.56,1.56,0,0,1-.82.26,3.13,3.13,0,0,1-1.52-.36,7.33,7.33,0,0,1-2.22-1.76,7.22,7.22,0,0,1-1.77-4.39,7.13,7.13,0,0,1,.57-3.15,5.17,5.17,0,0,1,.4-.77q.16-.25.18-.24s-.18.37-.43,1.07a7.54,7.54,0,0,0-.42,3.07,7.09,7.09,0,0,0,1.76,4.15,7,7,0,0,0,2.12,1.65,2.72,2.72,0,0,0,1.31.31.86.86,0,0,0,.9-.68,1,1,0,0,0-.55-1,1.89,1.89,0,0,0-1.28-.18,2.77,2.77,0,0,0-1.92,1.58,3.09,3.09,0,0,0-.07,2.31,4.27,4.27,0,0,0,1.14,1.75,6,6,0,0,0,2.75,1.37C683,178.92,683.39,179,683.39,179Z" transform="translate(-21.29 -24.85)"/><path class="cls-10" d="M674.88,273.19a4.92,4.92,0,0,1-.26-.8l-.62-2.3c-.53-2.07-1.25-4.89-2.1-8.25v-.06l0-.06c1-3.36,2.37-7.3,3.89-11.48,2.25-6.19,4.42-11.75,6-15.76.78-1.94,1.43-3.54,1.92-4.73.21-.51.39-.93.54-1.28s.21-.44.23-.43a2.53,2.53,0,0,1-.13.47c-.12.35-.27.79-.46,1.31-.44,1.21-1,2.83-1.76,4.8-1.51,4-3.63,9.61-5.87,15.8-1.52,4.17-2.87,8.1-4,11.44v-.12c.78,3.37,1.43,6.2,1.91,8.28.2,1,.37,1.73.5,2.33A3.25,3.25,0,0,1,674.88,273.19Z" transform="translate(-21.29 -24.85)"/><path class="cls-10" d="M680.16,257.19c.09,0-.07,1.3-.08,3.38a50.17,50.17,0,0,0,.57,8.1,28.05,28.05,0,0,0,2.19,7.76,21.5,21.5,0,0,0,1.78,2.83,3.73,3.73,0,0,1-.69-.61,9.91,9.91,0,0,1-1.42-2.06,24.84,24.84,0,0,1-2.38-7.85,40.8,40.8,0,0,1-.42-8.18,23.86,23.86,0,0,1,.24-2.48A3.33,3.33,0,0,1,680.16,257.19Z" transform="translate(-21.29 -24.85)"/><path class="cls-10" d="M680.26,256.75s-.13.28-.4.75a12.82,12.82,0,0,0-.76,2.16,35.57,35.57,0,0,0-1,7.53,38.9,38.9,0,0,0,.44,7.59c.32,1.93.77,3.06.68,3.09a3.18,3.18,0,0,1-.38-.77,6.43,6.43,0,0,1-.33-1,12.88,12.88,0,0,1-.33-1.3,32,32,0,0,1-.6-7.68,29.48,29.48,0,0,1,1.13-7.62,9,9,0,0,1,.94-2.15C680,256.94,680.24,256.73,680.26,256.75Z" transform="translate(-21.29 -24.85)"/><path class="cls-10" d="M680.72,257.7a26.73,26.73,0,0,1-2.35-4.7,25.94,25.94,0,0,1-1.87-4.9,26.88,26.88,0,0,1,2.34,4.69A26.37,26.37,0,0,1,680.72,257.7Z" transform="translate(-21.29 -24.85)"/></g><g id="Character_2" data-name="Character 2"><path class="cls-12" d="M427.87,451.74l16.6,8.87s-4.94,21.22-1.92,23.49L464,452l-2.36-1.54-8.92-4-16.91-8.37Z" transform="translate(-21.29 -24.85)"/><path class="cls-3" d="M448.48,449.32a1.62,1.62,0,0,1,2.15.08,1.55,1.55,0,0,1-.07,2.14,1.7,1.7,0,0,1-2.27-.1,1.6,1.6,0,0,1,.31-2.21" transform="translate(-21.29 -24.85)"/><path class="cls-10" d="M464,452l-2.36-1.54L441.74,481.7s-.33,1.89.81,2.4Z" transform="translate(-21.29 -24.85)"/><path class="cls-10" d="M444,461c.16.1.77-.66,1.81-1.11s2-.42,2-.61-1.05-.57-2.3,0S443.78,461,444,461Z" transform="translate(-21.29 -24.85)"/><path class="cls-10" d="M443.1,465.43c.13.14.86-.38,1.9-.47s1.87.22,2,.05-.74-.87-2-.72S443,465.33,443.1,465.43Z" transform="translate(-21.29 -24.85)"/><path class="cls-10" d="M445.94,470.13c.13-.13-.53-.88-1.68-1.05s-2,.35-1.92.51.87,0,1.82.15S445.81,470.28,445.94,470.13Z" transform="translate(-21.29 -24.85)"/><path class="cls-10" d="M439.44,459.68c.19,0,.46-.86,1.12-1.73s1.42-1.38,1.34-1.56-1.11.13-1.88,1.16S439.26,459.67,439.44,459.68Z" transform="translate(-21.29 -24.85)"/><path class="cls-12" d="M402.25,433.2l-20.71,12.64-19.27,5.28c-2,.44-3,1.37-3,2.6a2.28,2.28,0,0,0,1.92,2.06L390,461.27a1,1,0,0,0,.74-.15c2.95-1.91,18.79-11.55,18.79-11.55Z" transform="translate(-21.29 -24.85)"/><path class="cls-10" d="M390.61,443.87a2.21,2.21,0,0,1,.78-.48,6.3,6.3,0,0,1,2.44-.58,2.86,2.86,0,0,1,1.78.37,1,1,0,0,1,.37,1.09,1.68,1.68,0,0,1-.75.88,3.53,3.53,0,0,1-4.36-1,4.07,4.07,0,0,1-.16-4.54,1.39,1.39,0,0,1,1-.64,1,1,0,0,1,1,.62,3.51,3.51,0,0,1,.09,1.8,7.41,7.41,0,0,1-.8,2.38,2.16,2.16,0,0,1-.54.74,11.31,11.31,0,0,0,1-3.16,3.2,3.2,0,0,0-.11-1.57.53.53,0,0,0-.52-.35,1,1,0,0,0-.62.47,3.65,3.65,0,0,0,.18,3.93,3.07,3.07,0,0,0,3.69.93,1.17,1.17,0,0,0,.55-.6.53.53,0,0,0-.19-.6,2.56,2.56,0,0,0-1.5-.34A9.64,9.64,0,0,0,390.61,443.87Z" transform="translate(-21.29 -24.85)"/><path class="cls-10" d="M359.28,453.72l32.72,6.6-1.16.69a2.57,2.57,0,0,1-1.82.31l-28.25-5.62a1.73,1.73,0,0,1-1.36-1.35Z" transform="translate(-21.29 -24.85)"/><path class="cls-10" d="M382.91,449.82c-.16,0-.28-.94-.74-2s-1-1.81-.92-1.92.91.55,1.4,1.71A2.89,2.89,0,0,1,382.91,449.82Z" transform="translate(-21.29 -24.85)"/><path class="cls-10" d="M378,451c-.13,0-.19-.89-.61-1.91s-.92-1.71-.84-1.81.92.5,1.33,1.63S378.19,451,378,451Z" transform="translate(-21.29 -24.85)"/><path class="cls-10" d="M373.85,452.12c-.15,0-.2-.91-.55-1.92s-.83-1.77-.71-1.87.83.57,1.21,1.7S374,452.13,373.85,452.12Z" transform="translate(-21.29 -24.85)"/><path class="cls-10" d="M385.35,445.51s.2-.27.73-.53a3.59,3.59,0,0,1,2.44-.26l.15,0v.16a1.37,1.37,0,0,1-1.27,1.06c-.56.08-1.13.1-1.74.15-.32,0-.61.06-1,0a1.45,1.45,0,0,1-1.05-.42,2.39,2.39,0,0,1-.49-1,8.13,8.13,0,0,1-.3-3.2,4.18,4.18,0,0,1,.22-1.06,1.07,1.07,0,0,1,.4-.48.79.79,0,0,1,.65-.08,1.22,1.22,0,0,1,.76.78,4.16,4.16,0,0,1,.23.87,5.8,5.8,0,0,1,.07,1.59,5.92,5.92,0,0,1-.63,2.2,2,2,0,0,1-.49.68,8.53,8.53,0,0,0,.75-2.9,6,6,0,0,0-.12-1.49c-.12-.5-.26-1.17-.7-1.27s-.59.54-.63,1.21a8.19,8.19,0,0,0,.07,2,4.07,4.07,0,0,0,.59,1.77c.31.38,1,.27,1.6.25s1.18,0,1.7-.1.91-.32,1-.67l.14.2a3.76,3.76,0,0,0-2.26.09C385.64,445.36,385.38,445.54,385.35,445.51Z" transform="translate(-21.29 -24.85)"/><path class="cls-8" d="M391.44,451.18a1.21,1.21,0,0,0-.49-.6.7.7,0,0,0-.75,0l-.1,0a1.43,1.43,0,0,0-.84,1.1,1.28,1.28,0,0,0,.57,1.24,1.17,1.17,0,0,0,1.34-.09A1.44,1.44,0,0,0,391.44,451.18Z" transform="translate(-21.29 -24.85)"/><path class="cls-24" d="M424.58,415.22s-49.1-29.33-60.93-15.42,9,28.85,13.08,31.67S427.07,454,427.07,454l8.51-16.27Z" transform="translate(-21.29 -24.85)"/><path class="cls-24" d="M386.5,439.23s60.65-32.62,67.31-35.83c5.72-2.76,21.81-11.43,27,5.72s-26,38.31-26,38.31l-12.92-6.72-17.85,8.44-22.27,10.69Z" transform="translate(-21.29 -24.85)"/><path class="cls-24" d="M435.75,458.47c-.58-.35-24.16-11.59-24.16-11.59l24.7-10.49,14,8.33Z" transform="translate(-21.29 -24.85)"/><path class="cls-24" d="M457.79,433.2l-.26.15-.8.4-3.11,1.51L442,440.86l-40.08,19.05-.19.08-.12-.16-12.69-17-2.6-3.48-.18-.24.27-.14c19.3-10.51,36.65-19.86,49.35-26.23,6.34-3.2,11.5-5.71,15.08-7.38,1.79-.85,3.19-1.47,4.14-1.91L456,403l.37-.14-.35.19-1.06.53-4.09,2c-3.56,1.72-8.69,4.27-15,7.52-12.65,6.45-30,15.85-49.26,26.37l.08-.39c.82,1.11,1.71,2.29,2.6,3.48l12.67,17-.31-.08,40.16-18.88,11.72-5.46,3.14-1.44.82-.37Z" transform="translate(-21.29 -24.85)"/><path class="cls-24" d="M386.89,405.43a8.88,8.88,0,0,1,1.36.41c.87.27,2.09.75,3.61,1.36,3,1.26,7.08,3.18,11.46,5.55s8.25,4.65,11,6.37c1.38.86,2.49,1.58,3.24,2.09a7.19,7.19,0,0,1,1.15.84,8.73,8.73,0,0,1-1.25-.67l-3.33-1.94c-2.81-1.64-6.7-3.88-11.07-6.24s-8.4-4.32-11.36-5.66c-1.49-.65-2.69-1.18-3.54-1.51A6.84,6.84,0,0,1,386.89,405.43Z" transform="translate(-21.29 -24.85)"/><path class="cls-24" d="M435.75,458.47a4.55,4.55,0,0,1,.75-.85l2.19-2.18c1.86-1.81,4.45-4.3,7.34-7,1.47-1.36,2.86-2.67,4.13-3.86l0,.38c-2.2-1.33-4.06-2.47-5.36-3.29a14.17,14.17,0,0,1-2-1.37,14.66,14.66,0,0,1,2.17,1.12c1.34.75,3.24,1.83,5.45,3.13l.28.16-.24.22-4.1,3.89c-2.89,2.73-5.52,5.17-7.45,6.92l-2.3,2.06A5.76,5.76,0,0,1,435.75,458.47Z" transform="translate(-21.29 -24.85)"/><path class="cls-15" d="M432.86,335.67c.5,0,17.93.88,21.24,4.6s10.69,60.16,10.69,60.16c-3.8.49-8.16,2.43-10.51,3.44l-29.42,14.72-15-9.44a3.22,3.22,0,0,1-.62-4.94h0L396,341.81a25.36,25.36,0,0,1,8.34-4.27C409.48,336,432.86,335.67,432.86,335.67Z" transform="translate(-21.29 -24.85)"/><path class="cls-15" d="M401.68,339.6s-5.31.85-7.5,4c-5.14,7.3-21.16,33.37-24,39.68-3,6.68-1.22,11.33,1.25,13.71,3.6,3.47,12.8,3.85,18.09-1.18,2.27-2.16,14.78-12.26,14.78-12.26Z" transform="translate(-21.29 -24.85)"/><path class="cls-10" d="M395.14,349.24a4.06,4.06,0,0,0,.17.55l.55,1.53c.46,1.33,1.09,3.28,1.8,5.7,1.43,4.85,3.13,11.62,4.92,19.12s3.33,14.29,4.48,19.24c.58,2.47,1.06,4.45,1.41,5.82.17.66.31,1.19.42,1.58a2,2,0,0,0,.17.54s0-.19-.1-.56-.21-.92-.35-1.59c-.32-1.42-.76-3.4-1.3-5.84-1.09-4.94-2.59-11.76-4.37-19.27s-3.54-14.28-5-19.11c-.74-2.42-1.42-4.36-1.92-5.68-.25-.63-.46-1.14-.61-1.51A2.92,2.92,0,0,0,395.14,349.24Z" transform="translate(-21.29 -24.85)"/><path class="cls-15" d="M447.59,337.51s4.17-.07,9,4.46c2,1.88,25,35.83,27.1,45.21,1.23,5.44-5.31,16.17-11.63,15.27-8.27-1.19-38.76-15-38.76-15l7.88-14.8,17.46,3.84-12.07-13.62-.28-25.12" transform="translate(-21.29 -24.85)"/><path class="cls-10" d="M376.73,380.46a1.48,1.48,0,0,0,.33-.17l.9-.55,3.25-2.06c2.74-1.76,6.52-4.21,10.67-6.94l2.78-1.83-.25-.05c2.35,3.46,4.43,6.48,6,8.61a25.5,25.5,0,0,0,2.56,3.34l-2.37-3.47c-1.5-2.22-3.54-5.24-5.85-8.68l-.1-.15-.15.1-2.78,1.82c-4.16,2.73-7.91,5.21-10.61,7l-3.19,2.16-.86.61A2.21,2.21,0,0,0,376.73,380.46Z" transform="translate(-21.29 -24.85)"/><polygon class="cls-25" points="405.78 341.6 419.4 348.68 413.11 360.48 404.71 354.2 405.78 341.6"/><path class="cls-3" d="M413.79,366.87l-9-6.87a1.67,1.67,0,0,0-1.1-.36l-12.3.33a.93.93,0,0,0-.91.91,1.64,1.64,0,0,0,.44,1.33l19.06,15,14.94-1.49Z" transform="translate(-21.29 -24.85)"/><path class="cls-25" d="M427.07,366.45s-4.83-4-6-4.31-6.51-.56-6.51-.56l-4.64,2.3,2.67,2.05a4.27,4.27,0,0,0,2.55-1l3.09.39Z" transform="translate(-21.29 -24.85)"/><path class="cls-25" d="M421.49,364.5l-8.14,2.27-11.57,1a2.51,2.51,0,0,0,2.14,2.7c1.37.23,3.78.54,3.78.54a3.89,3.89,0,0,0,2.22,2.72,6,6,0,0,0,1.61,2.14,1.54,1.54,0,0,0,.34.17c1.08.38,3.11,3.5,4.55,4s9.58-.93,9.58-.93l1.07-12.6Z" transform="translate(-21.29 -24.85)"/><path class="cls-26" d="M418.76,370.88s-.64.09-1.67.24a32.06,32.06,0,0,1-4,.29,31.44,31.44,0,0,1-4.05-.24c-1-.14-1.66-.27-1.67-.23a2.52,2.52,0,0,0,.44.13c.28.08.7.16,1.21.25a24.83,24.83,0,0,0,8.13-.05,12.31,12.31,0,0,0,1.21-.26A2.19,2.19,0,0,0,418.76,370.88Z" transform="translate(-21.29 -24.85)"/><path class="cls-26" d="M417,374.06a2,2,0,0,0,.42,1.59,1.36,1.36,0,0,0,1,.4,2.66,2.66,0,0,0,1.05-.24c.3-.13.55-.27.77-.37.42-.22.71-.3.7-.33a1.61,1.61,0,0,0-.77.19,4.89,4.89,0,0,1-1.75.53,1.23,1.23,0,0,1-.87-.33,1.58,1.58,0,0,1-.38-.69A7,7,0,0,0,417,374.06Z" transform="translate(-21.29 -24.85)"/><path class="cls-26" d="M411.09,374.5a4.23,4.23,0,0,0,.86.27,21,21,0,0,0,2.13.39,19.43,19.43,0,0,0,2.17.15,3.07,3.07,0,0,0,.9-.05c0-.06-1.37-.11-3-.32S411.1,374.43,411.09,374.5Z" transform="translate(-21.29 -24.85)"/><path class="cls-26" d="M416.94,378.16a2.3,2.3,0,0,0,1.28.65,2.12,2.12,0,0,0,1.44-.07c0-.06-.64,0-1.39-.14S417,378.1,416.94,378.16Z" transform="translate(-21.29 -24.85)"/><path class="cls-26" d="M414.08,377.85c0,.06.36.18.84.27a1.77,1.77,0,0,0,.89.06,2,2,0,0,0-.84-.27A1.91,1.91,0,0,0,414.08,377.85Z" transform="translate(-21.29 -24.85)"/><path class="cls-26" d="M413.35,366.77a21.74,21.74,0,0,0,3.8-1c1-.33,2-.66,2.64-.91a5,5,0,0,0,1.06-.48,7.23,7.23,0,0,0-1.11.33l-2.65.85-2.65.87A10.66,10.66,0,0,0,413.35,366.77Z" transform="translate(-21.29 -24.85)"/><path class="cls-25" d="M401.47,369s.91-.26,0-1.71-3.64.09-3.64.09l-3.52,1.83s-.87,1.73.05,2.25l.65.91s-1.41,1.27-.94,2.48a1.82,1.82,0,0,0,1.79,1.12s-.29,2.38.43,3.35a2.61,2.61,0,0,0,1.43,1.08,4.28,4.28,0,0,0,2.79,2.74c2.26.72,3.45.83,4.13-.1a10.4,10.4,0,0,0,1.14-2.12s5.06-2.3,5.24-3.59,0-1.44,0-1.44a2.46,2.46,0,0,0,0-1.89c-.45-.82-2.43-.24-2.43-.24l-6.35,1.11s5.15-2.07,5.79-2.8.06-1.72-2-1.6-8.17.91-8.17.91a1.78,1.78,0,0,1,.75-.73c.42-.15,1.72-.81,1.72-.81Z" transform="translate(-21.29 -24.85)"/><path class="cls-26" d="M399.43,378.38c0,.06,2.59-.44,5.75-1.12s5.72-1.27,5.71-1.33-2.59.44-5.75,1.12S399.41,378.32,399.43,378.38Z" transform="translate(-21.29 -24.85)"/><path class="cls-26" d="M402.21,382a8.31,8.31,0,0,0,1.86-.37c.51-.14,1-.28,1.28-.4a3.25,3.25,0,0,0,.37-.18.29.29,0,0,0,.1-.08s0-.06,0,0-.79.22-1.79.49A9,9,0,0,0,402.21,382Z" transform="translate(-21.29 -24.85)"/><path class="cls-26" d="M397.2,375.48a26.11,26.11,0,0,0,2.78-.27c1.53-.17,2.77-.25,2.77-.32a14,14,0,0,0-2.8.1A13.38,13.38,0,0,0,397.2,375.48Z" transform="translate(-21.29 -24.85)"/><path class="cls-26" d="M395.86,372.16s.56-.27,1.26-.48,1.31-.23,1.31-.29a2.26,2.26,0,0,0-1.37.08A2.41,2.41,0,0,0,395.86,372.16Z" transform="translate(-21.29 -24.85)"/><path class="cls-10" d="M391,361.06h.23l.66,0,2.42-.16c2-.11,4.86-.19,8-.08a4.39,4.39,0,0,1,2.17.38,8.59,8.59,0,0,1,.85.64l.81.65c1.05.84,2,1.59,2.81,2.24l1.91,1.49.53.4c.12.09.18.13.19.12a1.45,1.45,0,0,0-.17-.16l-.5-.43-1.86-1.54-2.78-2.28-.81-.65a6.62,6.62,0,0,0-.87-.66,2.55,2.55,0,0,0-1.11-.36c-.38,0-.77-.05-1.16-.06a75.25,75.25,0,0,0-8,.15c-1,.08-1.85.16-2.42.22l-.65.09Z" transform="translate(-21.29 -24.85)"/><path class="cls-8" d="M398.61,362.6a.6.6,0,0,1,.61-.2h0l.1,0h0a.85.85,0,0,1,.46.3.5.5,0,0,1,0,.64.55.55,0,0,1-.35.14.85.85,0,0,1-.7-.22A.58.58,0,0,1,398.61,362.6Z" transform="translate(-21.29 -24.85)"/><path class="cls-10" d="M456.83,397.64a2.79,2.79,0,0,0-.44-.22l-1.29-.59-4.88-2.16-16.89-7.35.09.25c1.61-3,3.37-6.33,5.2-9.75l2.68-5.05-.2.09,17.14,3.63h0a35.09,35.09,0,0,1,8.71,4.44c.95.67,1.67,1.24,2.15,1.62l.54.44c.13.1.19.15.2.14l-.17-.17-.52-.47c-.46-.41-1.16-1-2.11-1.69a34.07,34.07,0,0,0-8.7-4.58h0l-17.12-3.7-.13,0-.07.12-2.69,5-5.18,9.75-.09.17.17.08,16.95,7.22,4.91,2.06,1.32.54Z" transform="translate(-21.29 -24.85)"/><path class="cls-10" d="M448.33,365.27a13.56,13.56,0,0,0,1.32,1.82c.86,1.09,2.06,2.58,3.44,4.19s2.65,3.05,3.63,4a11.44,11.44,0,0,0,1.22,1.11c.17.11.28.22.44.19a.11.11,0,0,0,.05-.13s0,0,0,0,0,.09,0,.1a.88.88,0,0,1-.33-.23c-.28-.26-.66-.67-1.13-1.18-.92-1-2.16-2.48-3.53-4.09l-3.52-4.13A13.35,13.35,0,0,0,448.33,365.27Z" transform="translate(-21.29 -24.85)"/><path class="cls-10" d="M445.38,358.13c.07,0-.08-1.11,0-2.9a19,19,0,0,1,.44-3.1A19.34,19.34,0,0,1,449,345.2a19.3,19.3,0,0,1,2-2.38c1.28-1.26,2.21-1.87,2.17-1.93a3.28,3.28,0,0,0-.67.4,7.73,7.73,0,0,0-.75.55c-.27.23-.61.47-.93.79a17.82,17.82,0,0,0-2.13,2.37,19.46,19.46,0,0,0-2,3.36,20.49,20.49,0,0,0-1.22,3.7,17.08,17.08,0,0,0-.37,3.16,12.15,12.15,0,0,0,0,1.22,7,7,0,0,0,.09.92A2.55,2.55,0,0,0,445.38,358.13Z" transform="translate(-21.29 -24.85)"/><path class="cls-10" d="M424.29,409.74c0-.06-.89,0-2.31-.14a22.06,22.06,0,0,1-5.42-1.18,21.48,21.48,0,0,1-4.93-2.55c-1.18-.81-1.84-1.41-1.88-1.36s.13.18.42.47a14.31,14.31,0,0,0,1.3,1.1,19,19,0,0,0,5,2.68,19.17,19.17,0,0,0,5.53,1.1,14.53,14.53,0,0,0,1.71,0C424.08,409.8,424.3,409.77,424.29,409.74Z" transform="translate(-21.29 -24.85)"/><path class="cls-10" d="M414.72,393.54a3.39,3.39,0,0,0,.44.63c.3.39.74.94,1.31,1.62,1.14,1.35,2.77,3.16,4.66,5.07s3.71,3.55,5.05,4.69c.67.57,1.22,1,1.61,1.33a3,3,0,0,0,.63.44s-.18-.22-.54-.55l-1.53-1.41c-1.29-1.19-3.06-2.86-5-4.76s-3.55-3.68-4.73-5l-1.4-1.55C414.93,393.71,414.74,393.52,414.72,393.54Z" transform="translate(-21.29 -24.85)"/><path class="cls-10" d="M430.83,319.19a64.41,64.41,0,0,0,1.31-10.87,22.27,22.27,0,0,0-2.31-10.61c-.26-.48-2.36-3.72-2.9-3.59-.39.09,1.05,3.18.9,3.54a18.84,18.84,0,0,0-.62,11.15,49.15,49.15,0,0,0,3.62,10.38" transform="translate(-21.29 -24.85)"/><path class="cls-25" d="M413.22,342c-.37-2.56-.67-4.57-.69-4.57s-8.9.3-10.65-8.32c-.85-4.16-1.89-12.89-2.75-20.79a16.39,16.39,0,0,1,13.24-17.85l.83-.16c9.09-1.19,15.18,5.87,16.11,15l4.29,31.8L432.06,340A11.54,11.54,0,0,1,413.22,342Z" transform="translate(-21.29 -24.85)"/><path class="cls-26" d="M412.53,337.45A21.27,21.27,0,0,0,423.15,332s-1.55,6.81-10.32,7.67Z" transform="translate(-21.29 -24.85)"/><path class="cls-10" d="M403.59,316.75a1.26,1.26,0,0,0,1.43,1,1.2,1.2,0,0,0,1.06-1.36,1.25,1.25,0,0,0-1.43-1A1.2,1.2,0,0,0,403.59,316.75Z" transform="translate(-21.29 -24.85)"/><path class="cls-10" d="M401.66,311.58c.19.13,1-.74,2.32-1s2.43.22,2.54,0-.15-.34-.64-.57a3.42,3.42,0,0,0-2.07-.23,3.25,3.25,0,0,0-1.8,1C401.66,311.21,401.57,311.52,401.66,311.58Z" transform="translate(-21.29 -24.85)"/><path class="cls-10" d="M415.19,315a1.26,1.26,0,0,0,1.43,1,1.21,1.21,0,0,0,1.06-1.36,1.27,1.27,0,0,0-1.43-1A1.21,1.21,0,0,0,415.19,315Z" transform="translate(-21.29 -24.85)"/><path class="cls-10" d="M414.77,309.64c.19.14,1-.73,2.32-1s2.43.23,2.54,0-.15-.35-.64-.58a3.42,3.42,0,0,0-2.07-.23,3.25,3.25,0,0,0-1.8,1C414.77,309.27,414.68,309.59,414.77,309.64Z" transform="translate(-21.29 -24.85)"/><path class="cls-10" d="M412,320.76a8.35,8.35,0,0,0-2.23,0c-.34,0-.68,0-.78-.2a1.74,1.74,0,0,1,0-1.05c.16-.88.33-1.8.51-2.77a44.87,44.87,0,0,0,1-7.19,45.26,45.26,0,0,0-1.54,7.09c-.16,1-.32,1.9-.47,2.78a2,2,0,0,0,.08,1.37.91.91,0,0,0,.65.39,2.79,2.79,0,0,0,.6,0A9.57,9.57,0,0,0,412,320.76Z" transform="translate(-21.29 -24.85)"/><path class="cls-10" d="M416,320.93c-.22,0,0,1.47-1,2.73s-2.6,1.39-2.58,1.59.4.22,1,.11a3.68,3.68,0,0,0,2.17-1.25,3.21,3.21,0,0,0,.73-2.27C416.36,321.23,416.13,320.9,416,320.93Z" transform="translate(-21.29 -24.85)"/><path class="cls-10" d="M413.82,304.24c.2.34,1.49-.09,3.09-.2s2.93.08,3.08-.28c.06-.18-.22-.47-.8-.73a5.45,5.45,0,0,0-4.7.37C414,303.74,413.73,304.08,413.82,304.24Z" transform="translate(-21.29 -24.85)"/><path class="cls-10" d="M401.37,307.06c.29.26,1.15-.23,2.24-.45s2.07-.18,2.23-.54c.06-.17-.14-.45-.6-.65a3.13,3.13,0,0,0-1.92-.15,3.19,3.19,0,0,0-1.68,1C401.31,306.6,401.24,306.94,401.37,307.06Z" transform="translate(-21.29 -24.85)"/><path class="cls-25" d="M429.82,311.86c.14-.1,5.61-2.89,6.54,3.05s-5.22,5.66-5.26,5.49S429.82,311.86,429.82,311.86Z" transform="translate(-21.29 -24.85)"/><path class="cls-26" d="M432.56,317.86s.12.06.31.11a1.06,1.06,0,0,0,.77-.1,2.6,2.6,0,0,0,.83-2.49,3.5,3.5,0,0,0-.53-1.44,1.24,1.24,0,0,0-.9-.67.54.54,0,0,0-.57.38c-.05.18,0,.29,0,.31s-.14-.08-.13-.33a.63.63,0,0,1,.18-.41A.76.76,0,0,1,433,313a1.43,1.43,0,0,1,1.23.75,3.56,3.56,0,0,1,.62,1.6,2.7,2.7,0,0,1-1.11,2.8,1.08,1.08,0,0,1-1,0C432.6,318,432.54,317.88,432.56,317.86Z" transform="translate(-21.29 -24.85)"/><path class="cls-10" d="M401.52,297.92c-1-.39,1.39-3.94,3.59-5.37,3.34-2.15,8.65-4,12.09-3.52,4.14.54,7.73,2,10.26,5.35a23.55,23.55,0,0,1,4.41,11.56,7.26,7.26,0,0,1-.3,3.76c-.64,1.44-2.11,2.5-1.77,4.31a2.55,2.55,0,0,1-.35,1.91c-.92,1.32-2.41.43-3.18-.57-1.66-2.14-2.22-4.9-2.73-7.56a17.49,17.49,0,0,1-.46-5.71c.14-1,.47-2,.56-3.09a3.61,3.61,0,0,0-.87-2.9,3.22,3.22,0,0,0-.55-.42,6.28,6.28,0,0,0-6.34-.26c-3.17,1.68-8.63,4.3-10.3,3.39a9.26,9.26,0,0,1-3.06-2.31Z" transform="translate(-21.29 -24.85)"/></g><g id="Character_1" data-name="Character 1"><path class="cls-10" d="M101.7,178.79c-1.21-4-2.67-8-2.5-12.22L96.64,159A12.88,12.88,0,0,0,82,172.5a62.45,62.45,0,0,0,1.31,7c.39,2.35.35,4.93-1,6.88-.61.88-1.5,1.68-1.56,2.74-.07,1.37,1.35,2.43,2.71,2.49a7.87,7.87,0,0,0,3.86-1.22,4.26,4.26,0,0,0,8.11,2.32c-.18,1.86,2.18,3.18,3.95,2.6s2.87-2.4,3.39-4.19C103.87,187.1,102.9,182.8,101.7,178.79Z" transform="translate(-21.29 -24.85)"/><polygon class="cls-25" points="83.53 385.98 83.97 378.12 97.69 377.84 97.32 387.46 92.28 390.38 83.53 385.98"/><path class="cls-12" d="M118.94,410.53l0,.9S134,418,134.11,420.88l-30.33-1,.74-10.08A17.37,17.37,0,0,0,118.94,410.53Z" transform="translate(-21.29 -24.85)"/><g class="cls-27"><path class="cls-8" d="M107.49,413.16a1.23,1.23,0,0,0-.9,1.38,1.19,1.19,0,0,0,1.36.91,1.31,1.31,0,0,0,1-1.48,1.24,1.24,0,0,0-1.53-.78" transform="translate(-21.29 -24.85)"/></g><g class="cls-27"><path class="cls-8" d="M103.78,419.91l.18-2.42,29,1.81s1.33.63,1.14,1.58Z" transform="translate(-21.29 -24.85)"/></g><path class="cls-10" d="M119,411.52c0,.15-.75.19-1.5.64s-1.15,1.07-1.28,1,.11-.91,1-1.44S119.06,411.38,119,411.52Z" transform="translate(-21.29 -24.85)"/><path class="cls-10" d="M122.16,412.94c0,.14-.62.37-1.14,1s-.69,1.27-.84,1.26-.21-.85.45-1.6S122.16,412.8,122.16,412.94Z" transform="translate(-21.29 -24.85)"/><path class="cls-10" d="M123.85,416.8c-.14,0-.32-.72.08-1.52s1.11-1.1,1.17-1-.38.55-.71,1.21S124,416.79,123.85,416.8Z" transform="translate(-21.29 -24.85)"/><polygon class="cls-25" points="87.59 368.43 84.78 391.8 74.08 389.83 74.23 366.77 87.59 368.43"/><path class="cls-12" d="M95.49,410.24s7,6.11,11.19,2l.71,2.31,2.54,16.18a2.1,2.1,0,0,1-1.5,2.38,2.15,2.15,0,0,1-2.16-.66c-2.8-3.25-13-15.24-12.75-16.68L94,411.9a2,2,0,0,1,1.49-1.66Z" transform="translate(-21.29 -24.85)"/><g class="cls-27"><path class="cls-8" d="M108.05,433.15,93.67,414.41l-.09.84a2.3,2.3,0,0,0,.56,1.94c1.12,1.88,4.33,6.17,12.07,15.23a2.13,2.13,0,0,0,1.84.73Z" transform="translate(-21.29 -24.85)"/></g><g class="cls-27"><path class="cls-8" d="M96.34,412.17a1.22,1.22,0,0,1,.17,1.65,1.25,1.25,0,0,1-1.67.17,1.18,1.18,0,1,1,1.59-1.73" transform="translate(-21.29 -24.85)"/></g><path class="cls-10" d="M104.33,424a6.4,6.4,0,0,1,2-1.35,6.63,6.63,0,0,1,2.39-.18s-.21-.23-.69-.34a3.38,3.38,0,0,0-1.86.11,3.26,3.26,0,0,0-1.5,1.07C104.35,423.65,104.28,423.94,104.33,424Z" transform="translate(-21.29 -24.85)"/><path class="cls-10" d="M105.49,426.78c.09.1.82-.47,1.9-.65a16.69,16.69,0,0,1,2,0,2.4,2.4,0,0,0-2.1-.4C106.07,425.91,105.39,426.72,105.49,426.78Z" transform="translate(-21.29 -24.85)"/><path class="cls-10" d="M102,420.26a22,22,0,0,1,2.86-1.21,20.37,20.37,0,0,1,3.1-.35,4.69,4.69,0,0,0-3.22-.07A4.59,4.59,0,0,0,102,420.26Z" transform="translate(-21.29 -24.85)"/><path class="cls-10" d="M102.18,415.44c0,.13,1.21-.21,2.69-.1s2.59.58,2.65.46a5.33,5.33,0,0,0-5.34-.36Z" transform="translate(-21.29 -24.85)"/><path class="cls-10" d="M105.71,415.39a1.73,1.73,0,0,0,0-.75,5.29,5.29,0,0,0-.76-1.94,2.45,2.45,0,0,0-1.11-1,.87.87,0,0,0-.94.25,1.3,1.3,0,0,0-.25.92,3,3,0,0,0,2.8,2.5,3.42,3.42,0,0,0,3.24-2,1.1,1.1,0,0,0,0-1,.83.83,0,0,0-.89-.37,3,3,0,0,0-1.3.77,5.69,5.69,0,0,0-1.27,1.65,1.79,1.79,0,0,0-.27.71,9.64,9.64,0,0,1,1.75-2.12,2.69,2.69,0,0,1,1.15-.65.43.43,0,0,1,.49.2.74.74,0,0,1,0,.63,3.06,3.06,0,0,1-2.83,1.69,2.59,2.59,0,0,1-2.41-2.08,1,1,0,0,1,.15-.66.47.47,0,0,1,.52-.14,2.14,2.14,0,0,1,1,.86A7.77,7.77,0,0,1,105.71,415.39Z" transform="translate(-21.29 -24.85)"/><path class="cls-10" d="M136.69,245.05s2.14,10,4.6,28.11c2.23,16.5-5.1,64.61-7,74.69-1.3,6.86-7.69,41.15-15,62l-10.75-.19s8.18-69.63,8-76.9-2.11-46-2.11-46l-3.27-29.42Z" transform="translate(-21.29 -24.85)"/><path class="cls-10" d="M94.08,241.78c.87.31,19.78,14.14,19.78,14.14s9,79.76,9.65,90.24-15,63.46-15,63.46l-14.83-.25s.9-35.17,3.41-45.88,2.56-13.33,1.22-20-13-42.34-16.45-60.14S94.08,241.78,94.08,241.78Z" transform="translate(-21.29 -24.85)"/><path class="cls-12" d="M121.31,277.33a1.32,1.32,0,0,1,.06.34l.12,1c.1.91.24,2.21.42,3.88.36,3.37.84,8.25,1.35,14.3s1.09,13.24,1.5,21.24c.18,4,.37,8.22.33,12.59,0,1.09-.07,2.19-.1,3.3s-.18,2.24-.3,3.36c-.35,2.23-.76,4.48-1.18,6.76-3.53,18.17-7.12,34.53-9.69,46.39-1.3,5.9-2.36,10.68-3.1,14-.37,1.63-.67,2.91-.87,3.8l-.24,1a1.89,1.89,0,0,1-.1.33,2.75,2.75,0,0,1,.06-.34c0-.25.11-.58.19-1,.19-.89.45-2.18.79-3.82.71-3.34,1.72-8.13,3-14.05,2.48-11.87,6-28.24,9.55-46.4,2.25-9,1.55-17.91,1.28-25.91s-.92-15.2-1.4-21.24S122,286,121.74,282.57c-.14-1.67-.26-3-.34-3.89,0-.42-.06-.76-.08-1A2.17,2.17,0,0,1,121.31,277.33Z" transform="translate(-21.29 -24.85)"/><path class="cls-10" d="M98,151.28A21.46,21.46,0,0,1,114.6,143c3.77-.06,5.33.72,8,1.45a11.93,11.93,0,0,1,6.79,4.49,20.12,20.12,0,0,1,3.91,9.12A28.05,28.05,0,0,1,132,169.21c-1.66,4.72-2.12,6-4.14,8.82l-5.91,1.47c-4.81.17-9.69.33-14.37-.77S98.31,175.11,95.8,171C92.31,165.3,93.76,156.46,98,151.28Z" transform="translate(-21.29 -24.85)"/><path class="cls-25" d="M105.74,151.23l11.61-4.62,3,.36c6.83,0,11.53,7.55,11.58,13.07,0,6.14-.13,13.64-1.11,18.17-2,9.1-9.73,9.85-9.73,9.85s.16,4.85.22,7.91c-6.5,7.23-13.48,7.56-18.77-1.23l.1-40.4A3.24,3.24,0,0,1,105.74,151.23Z" transform="translate(-21.29 -24.85)"/><path class="cls-10" d="M129.19,167.51a1.18,1.18,0,0,1-1.2,1.13,1.13,1.13,0,0,1-1.15-1.13,1.18,1.18,0,0,1,1.2-1.13A1.12,1.12,0,0,1,129.19,167.51Z" transform="translate(-21.29 -24.85)"/><path class="cls-10" d="M129.88,163.11c-.16.15-1-.56-2.28-.63s-2.23.52-2.36.36.1-.35.52-.62a3.24,3.24,0,0,1,1.9-.47,3.09,3.09,0,0,1,1.8.69C129.84,162.76,130,163.05,129.88,163.11Z" transform="translate(-21.29 -24.85)"/><path class="cls-10" d="M121.74,173.05a8.15,8.15,0,0,1,2.07-.26c.33,0,.64-.06.71-.28a1.62,1.62,0,0,0-.17-1c-.26-.8-.53-1.64-.82-2.52a42.24,42.24,0,0,1-1.79-6.56,43.75,43.75,0,0,1,2.32,6.4c.27.88.53,1.73.78,2.53a1.85,1.85,0,0,1,.09,1.28.78.78,0,0,1-.55.44,1.91,1.91,0,0,1-.56,0A8.28,8.28,0,0,1,121.74,173.05Z" transform="translate(-21.29 -24.85)"/><path class="cls-26" d="M121.14,188.05a23.42,23.42,0,0,1-12.12-4s2.93,6.54,12.16,6.19Z" transform="translate(-21.29 -24.85)"/><path class="cls-10" d="M129.85,156.67c-.23.3-1.18,0-2.32.07s-2.1.28-2.33,0c-.11-.14,0-.44.45-.73a3.37,3.37,0,0,1,1.87-.55,3.47,3.47,0,0,1,1.88.51C129.81,156.24,130,156.53,129.85,156.67Z" transform="translate(-21.29 -24.85)"/><path class="cls-10" d="M115.31,167.05a1.17,1.17,0,0,0,1.11,1.21,1.13,1.13,0,0,0,1.24-1,1.19,1.19,0,0,0-1.12-1.21A1.12,1.12,0,0,0,115.31,167.05Z" transform="translate(-21.29 -24.85)"/><path class="cls-10" d="M112.73,162.62c.15.16,1-.49,2.32-.46s2.19.67,2.33.52-.08-.35-.48-.65a3.23,3.23,0,0,0-1.86-.61,3.13,3.13,0,0,0-1.85.56C112.8,162.28,112.66,162.55,112.73,162.62Z" transform="translate(-21.29 -24.85)"/><path class="cls-10" d="M113.49,157.43c.25.29,1.23,0,2.41,0s2.17.23,2.4-.07c.11-.14,0-.43-.47-.71a3.62,3.62,0,0,0-2-.51,3.57,3.57,0,0,0-1.93.55C113.53,157,113.39,157.29,113.49,157.43Z" transform="translate(-21.29 -24.85)"/><path class="cls-25" d="M104.25,169.77c0-.68-.67-2.34-1.34-2.48-1.78-.38-5-.41-5.32,4.16-.39,6.26,6,5.36,6,5.18S104.13,172.13,104.25,169.77Z" transform="translate(-21.29 -24.85)"/><path class="cls-26" d="M102,174.24s-.11.07-.3.14a1.12,1.12,0,0,1-.82,0,2.73,2.73,0,0,1-1.1-2.5,3.58,3.58,0,0,1,.4-1.54,1.27,1.27,0,0,1,.88-.79.55.55,0,0,1,.62.34c.07.18,0,.3.06.31s.14-.09.1-.35a.65.65,0,0,0-.22-.41.83.83,0,0,0-.59-.2,1.54,1.54,0,0,0-1.2.9,3.67,3.67,0,0,0-.48,1.72,2.81,2.81,0,0,0,1.42,2.8,1.17,1.17,0,0,0,1-.1C102,174.39,102,174.25,102,174.24Z" transform="translate(-21.29 -24.85)"/><path class="cls-10" d="M102.66,167.31l1.59,1.65c6.86-6.57,20.28-23,19.53-22.05a20,20,0,0,0-9.81-1.06c-5.1.87-14.78,3.42-14.63,9.44S102.66,167.31,102.66,167.31Z" transform="translate(-21.29 -24.85)"/><path class="cls-12" d="M93.57,165.93a1.6,1.6,0,0,1,.09-.37,6.68,6.68,0,0,1,.43-1,9.13,9.13,0,0,1,2.61-2.94A16.91,16.91,0,0,1,102,159.1c2.09-.68,4.45-1.21,6.77-2.2a30.34,30.34,0,0,0,6.18-3.47,30.89,30.89,0,0,0,4.36-3.81,36,36,0,0,0,2.53-3l.62-.87a2.78,2.78,0,0,1,.24-.29,1.34,1.34,0,0,1-.18.33c-.13.21-.32.52-.58.9a30.31,30.31,0,0,1-2.46,3.08,31,31,0,0,1-4.36,3.89,29.43,29.43,0,0,1-6.23,3.52,67.08,67.08,0,0,1-6.8,2.19,17.48,17.48,0,0,0-5.22,2.44,9.37,9.37,0,0,0-2.64,2.82C93.74,165.44,93.6,165.94,93.57,165.93Z" transform="translate(-21.29 -24.85)"/><path class="cls-26" d="M121.06,175.92a15.54,15.54,0,0,0-2.61-1.46,1.14,1.14,0,0,0-.54-.11.93.93,0,0,0-.58.41,2.46,2.46,0,0,0,0,2.78,2.33,2.33,0,0,0,2.51.92,2.78,2.78,0,0,0,1.64-2.27Z" transform="translate(-21.29 -24.85)"/><path class="cls-10" d="M120.8,177.88a2,2,0,0,1-1.51.6,2.52,2.52,0,0,1-1.72-.63,2.45,2.45,0,0,1-.82-2.09,2.32,2.32,0,0,1,.42-1.12,1.52,1.52,0,0,1,.45-.42.55.55,0,0,1,.38-.06,1,1,0,0,1,.29.1l1.52.84a6.2,6.2,0,0,1,1.36.87,6.3,6.3,0,0,1-1.5-.59l-1.56-.75c-.15-.07-.22-.09-.29,0a1.21,1.21,0,0,0-.3.3,1.92,1.92,0,0,0-.33.92,2.08,2.08,0,0,0,.66,1.74,2.22,2.22,0,0,0,1.44.62A4.84,4.84,0,0,0,120.8,177.88Z" transform="translate(-21.29 -24.85)"/><path class="cls-12" d="M104,177.42a2.2,2.2,0,1,1-2.2-2.2A2.19,2.19,0,0,1,104,177.42Z" transform="translate(-21.29 -24.85)"/><path class="cls-4" d="M133.21,194.51s6.54,2.27,8.48,8.09,4.59,13.17,4.59,13.17l-12.4,3.48Z" transform="translate(-21.29 -24.85)"/><path class="cls-28" d="M90.09,194.91l8.36-3.18,4.12-1.46c1.85,3.13,5.93,4.67,10.09,4.64,4.4,0,6.32-1.87,8.51-4.61l1.71.75,10.33,3.1,5.12,21.5-1.06,29.4,4.48,21.25c-15.85,6.43-42.63,5-59.55-2.64L93.84,239.9l-4.12-42.46Z" transform="translate(-21.29 -24.85)"/><path class="cls-25" d="M137.79,218.24l.23.37L126.21,199.9l-6.92,5.64s7.19,20.2,11.51,27.32c4.2,6.91,12.69,9.51,17,.78,2.19-4.48-2.62-17.47-2.62-17.47Z" transform="translate(-21.29 -24.85)"/><path class="cls-25" d="M141.75,224.39,126.33,199.9l3.3-10.31a8.12,8.12,0,0,0,.25-4.58c-.59-2.52-1.53-6.25-2-7-.78-1.12-1.17-.51-1.17-.51L117.89,202l3.06,8.21" transform="translate(-21.29 -24.85)"/><path class="cls-26" d="M121,210.21a2.15,2.15,0,0,1-.25-.53l-.63-1.6c-.56-1.44-1.34-3.47-2.32-6l0-.05,0-.05c2.07-5.87,5.13-14.53,8.67-24.52v-.05a.68.68,0,0,1,.81-.23,1.39,1.39,0,0,1,.53.41,3,3,0,0,1,.61,1.05c.27.72.48,1.46.69,2.2.41,1.5.8,3,1.14,4.57a8.4,8.4,0,0,1-.25,4l-1.18,3.65L126.57,200l0-.21c4.46,7.15,8.27,13.28,11,17.66l3.12,5.1.82,1.37a2.91,2.91,0,0,1,.26.49,2.11,2.11,0,0,1-.33-.45l-.88-1.32-3.25-5L126.13,200l-.06-.09,0-.11c.71-2.22,1.44-4.54,2.21-6.94s2-4.84,1.4-7.42c-.33-1.52-.72-3.05-1.12-4.52-.21-.74-.42-1.47-.68-2.16a2.44,2.44,0,0,0-.51-.89,1,1,0,0,0-.34-.27.14.14,0,0,0-.19,0l0,0L118,202.05V202l2.18,6.08.56,1.62A5.05,5.05,0,0,1,121,210.21Z" transform="translate(-21.29 -24.85)"/><path class="cls-25" d="M117.73,208l1.11-3.72s6.61-13.58,7-15.28,2.31-8,.94-9.2c0,0,1-3.25-.3-3.49s-1.93,1.5-1.93,1.5.2-1.76-.47-2.07c-1-.47-1.88,1-1.88,1h0s-1.14-.9-2.42,1.22c0,0-5.68,9.63-6.39,10.29s-1.86-1.36-1.86-1.36a13.66,13.66,0,0,0-1.92-3.87c-.77-.84-2.07-.16-2.07-.16a25.83,25.83,0,0,0,1.29,7.84c.6,1.84,2.19,8.39,2.19,8.39l-2.8,6" transform="translate(-21.29 -24.85)"/><path class="cls-26" d="M108.27,205.06a2.38,2.38,0,0,1,.15-.41c.14-.31.31-.7.52-1.19.48-1.08,1.16-2.58,2-4.47v.09c-.53-2-1.17-4.33-1.89-7-.33-1.35-.85-2.77-1.15-4.32a24.91,24.91,0,0,1-.53-4.93v-.14l.12,0a2.29,2.29,0,0,1,1.71-.2,1.54,1.54,0,0,1,.75.54,5.51,5.51,0,0,1,.49.7,17.15,17.15,0,0,1,1.37,3.12l0-.05a4.17,4.17,0,0,0,1,1.22c.22.16.36.17.47.07a7.55,7.55,0,0,0,.49-.66c.65-1,1.27-2,1.91-3l3.86-6.42a4.21,4.21,0,0,1,1.09-1.3,1.53,1.53,0,0,1,1.79-.11l-.38.08a2.91,2.91,0,0,1,.84-.94,1.35,1.35,0,0,1,1.32-.19.94.94,0,0,1,.51.55,2.94,2.94,0,0,1,.15.62,5.17,5.17,0,0,1,0,1.18l-.49-.12a3,3,0,0,1,1.09-1.43,1.56,1.56,0,0,1,.92-.25,1.24,1.24,0,0,1,.5.13,1.06,1.06,0,0,1,.37.39,3.09,3.09,0,0,1,.17,1.73,10.61,10.61,0,0,1-.35,1.58l-.07-.26a2,2,0,0,1,.51,1.13,6.26,6.26,0,0,1,.06,1.13,14.88,14.88,0,0,1-.25,2.15c-.24,1.39-.58,2.72-.92,4a13.53,13.53,0,0,1-.59,1.87c-.24.6-.5,1.17-.75,1.73-.51,1.11-1,2.17-1.48,3.19-1.92,4.05-3.53,7.31-4.64,9.53v0l-.87,2.75c-.1.29-.18.52-.24.71a1.17,1.17,0,0,1-.1.23.94.94,0,0,1,0-.25q.07-.28.18-.72c.19-.68.45-1.6.77-2.78h0l4.48-9.59c.47-1,1-2.09,1.45-3.2.25-.56.49-1.13.73-1.72a13.83,13.83,0,0,0,.56-1.82c.33-1.27.66-2.59.89-4a14.38,14.38,0,0,0,.22-2.08,2.85,2.85,0,0,0-.41-1.88l-.11-.12,0-.14a9.41,9.41,0,0,0,.32-1.49,2.65,2.65,0,0,0-.11-1.42c-.14-.35-.72-.32-1.08-.09a2.53,2.53,0,0,0-.88,1.17l-.67,1.68.17-1.79a4.7,4.7,0,0,0,0-1.06c0-.34-.16-.7-.34-.75-.54-.26-1.18.32-1.52.9l-.15.24-.24-.16a1,1,0,0,0-1.17.12,3.93,3.93,0,0,0-.94,1.14c-1.31,2.21-2.6,4.36-3.87,6.43-.64,1-1.27,2.06-1.93,3a8.48,8.48,0,0,1-.56.74.74.74,0,0,1-.6.2,1.13,1.13,0,0,1-.51-.22,4.81,4.81,0,0,1-1.15-1.38v0a17.2,17.2,0,0,0-1.31-3c-.28-.44-.56-.92-1-1a2,2,0,0,0-1.36.16l.12-.19a25.1,25.1,0,0,0,.49,4.83c.28,1.53.78,2.92,1.1,4.29.69,2.7,1.29,5.08,1.8,7.06v.05l0,0-2.13,4.42-.58,1.16A1.54,1.54,0,0,1,108.27,205.06Z" transform="translate(-21.29 -24.85)"/><path class="cls-26" d="M117.19,187.87a8.22,8.22,0,0,0,1.06-1.47,30,30,0,0,0,2-3.86,38,38,0,0,0,1.53-4.08,8.64,8.64,0,0,0,.43-1.76,13.84,13.84,0,0,0-.65,1.68c-.38,1.05-.92,2.48-1.61,4a41.75,41.75,0,0,1-1.94,3.87A13.7,13.7,0,0,0,117.19,187.87Z" transform="translate(-21.29 -24.85)"/><path class="cls-26" d="M120.13,188.88a8.55,8.55,0,0,0,.83-1.52c.47-1,1.09-2.29,1.72-3.79s1.11-2.9,1.42-3.93a8.11,8.11,0,0,0,.4-1.68,10.66,10.66,0,0,0-.62,1.61c-.36,1-.88,2.38-1.5,3.87s-1.17,2.75-1.63,3.83A9.29,9.29,0,0,0,120.13,188.88Z" transform="translate(-21.29 -24.85)"/><path class="cls-26" d="M123.31,189.5a5.47,5.47,0,0,0,.84-1.28,22.6,22.6,0,0,0,1.49-3.38,29.19,29.19,0,0,0,1-3.57,6.44,6.44,0,0,0,.22-1.51c-.11,0-.57,2.26-1.5,5a35.76,35.76,0,0,1-1.38,3.39A12.15,12.15,0,0,0,123.31,189.5Z" transform="translate(-21.29 -24.85)"/><path class="cls-25" d="M81.36,217.55s6.48,21.4,8.82,24.8c4.28,6.22,13.37,7.57,16.74,1,3.61-7,11.92-39.13,11.92-39.13l-8.34-3.7L99.14,224.33l-3.82-10.81Z" transform="translate(-21.29 -24.85)"/><path class="cls-4" d="M90.09,194.91s-8.73,3.59-9.4,15.42c-.17,2.9,1.78,18.56,1.78,18.56l16.28-7.11L94.84,208Z" transform="translate(-21.29 -24.85)"/><path class="cls-10" d="M99.09,223.75a63.36,63.36,0,0,1-2.87-7.49,62.86,62.86,0,0,1-2.38-7.66,61.35,61.35,0,0,1,2.87,7.49A60.8,60.8,0,0,1,99.09,223.75Z" transform="translate(-21.29 -24.85)"/><path class="cls-12" d="M97.7,172.57a4.76,4.76,0,0,1-1.34-1.36,12.15,12.15,0,0,1-2-4.15,12.5,12.5,0,0,1-.33-4.6,4.93,4.93,0,0,1,.48-1.84,15.58,15.58,0,0,0,3.19,11.95Z" transform="translate(-21.29 -24.85)"/><path class="cls-10" d="M136.05,205.39a39.73,39.73,0,0,1,1.5,6.2c.56,2.77.95,5.13,1,5.95l0,.38-.18-.32c-.11-.21-.15-.32-.13-.33s.11.06.27.24l-.15.06c-.26-.77-.8-3.11-1.36-5.88A39,39,0,0,1,136.05,205.39Z" transform="translate(-21.29 -24.85)"/><path class="cls-25" d="M96.1,234.82c-.63-3.25.52-8.6,3-10.49" transform="translate(-21.29 -24.85)"/><path class="cls-26" d="M99.14,224.33c0,.07-.44.47-1,1.31a12.28,12.28,0,0,0-1.5,3.62,23.08,23.08,0,0,0-.56,5.56,3.83,3.83,0,0,1-.35-1.65,13.12,13.12,0,0,1,.41-4,9.89,9.89,0,0,1,1.7-3.7C98.51,224.59,99.12,224.28,99.14,224.33Z" transform="translate(-21.29 -24.85)"/></g></svg>